<svg width="20" height="20" viewBox="0 0 20 20" fill="none" xmlns="http://www.w3.org/2000/svg">
<path fill-rule="evenodd" clip-rule="evenodd" d="M0 10C0 4.48601 4.48601 0 10 0C15.514 0 19.9996 4.48601 20 10C20 15.514 15.514 20 10 20C4.48601 20 0 15.514 0 10ZM1.61179 9.99964C1.61179 14.6253 5.37467 18.3882 10 18.3882C14.6253 18.3882 18.3882 14.6253 18.3882 10C18.3882 5.37467 14.6253 1.61143 10 1.61143C5.37467 1.61143 1.61179 5.37431 1.61179 9.99964ZM8.54622 11.3405L13.1315 7.11032C13.4408 6.82529 13.9417 6.82529 14.251 7.11032C14.56 7.39567 14.56 7.85771 14.251 8.14307L9.10598 12.8893C8.95149 13.0322 8.74903 13.1034 8.54657 13.1034C8.34412 13.1034 8.14131 13.0319 7.98682 12.8893L5.74921 10.8252C5.43988 10.5401 5.43988 10.0778 5.74921 9.79273C6.05819 9.50737 6.55939 9.50737 6.86837 9.79273L8.54622 11.3405Z" fill="#27AE60"/>
</svg>
