<svg width="15" height="15" viewBox="0 0 15 15"  xmlns="http://www.w3.org/2000/svg">
    <path d="M0 7.5C0 11.6355 3.36445 15 7.5 15C11.6355 15 15 11.6355 15 7.5C15 3.36445 11.6355 0 7.5 0C3.36445 0 0 3.36445 0 7.5ZM0.508636 7.5C0.508636 3.64488 3.64522 0.508636 7.5 0.508636C11.3555 0.508636 14.4914 3.64488 14.4914 7.5C14.4914 11.3548 11.3555 14.4914 7.5 14.4914C3.64522 14.4914 0.508636 11.3548 0.508636 7.5ZM6.37859 10.0588C6.4281 10.1086 6.4932 10.1334 6.55831 10.1334C6.62341 10.1334 6.68852 10.1086 6.73837 10.0581L9.2222 7.57157C9.32156 7.47221 9.32156 7.31114 9.2222 7.21179L6.73837 4.72524C6.63901 4.62589 6.47795 4.62589 6.37859 4.72524C6.27958 4.82426 6.27958 4.98566 6.37859 5.08502L8.68305 7.39185L6.37859 9.69902C6.27924 9.79837 6.27924 9.95978 6.37859 10.0588Z" fill="#fff"/>
</svg>
