<svg width="20" height="20" viewBox="0 0 20 20" fill="none" xmlns="http://www.w3.org/2000/svg">
<path d="M0 10C0 4.48601 4.48601 0 10 0C15.514 0 19.9996 4.48601 20 10C20 15.514 15.514 20 10 20C4.48601 20 0 15.514 0 10ZM1.61179 9.99964C1.61179 14.6253 5.37467 18.3882 10 18.3882C14.6253 18.3882 18.3882 14.6253 18.3882 10C18.3882 5.37467 14.6253 1.61143 10 1.61143C5.37467 1.61143 1.61179 5.37431 1.61179 9.99964ZM6.25 11.5C6.94036 11.5 7.5 10.9404 7.5 10.25C7.5 9.55964 6.94036 9 6.25 9C5.55964 9 5 9.55964 5 10.25C5 10.9404 5.55964 11.5 6.25 11.5ZM10 11.5C10.6904 11.5 11.25 10.9404 11.25 10.25C11.25 9.55964 10.6904 9 10 9C9.30964 9 8.75 9.55964 8.75 10.25C8.75 10.9404 9.30964 11.5 10 11.5ZM15 10.25C15 10.9404 14.4404 11.5 13.75 11.5C13.0596 11.5 12.5 10.9404 12.5 10.25C12.5 9.55964 13.0596 9 13.75 9C14.4404 9 15 9.55964 15 10.25Z" fill="#BDBDBD"/>
</svg>
