<svg width="20" height="20" viewBox="0 0 20 20" fill="none" xmlns="http://www.w3.org/2000/svg">
<path d="M17.0707 2.92929C15.181 1.03956 12.6726 0 10 0C7.32744 0 4.81902 1.03956 2.92929 2.92929C1.03956 4.81902 0 7.32744 0 10C0 12.6726 1.03956 15.181 2.92929 17.0707C4.81902 18.9604 7.32744 20 10 20C12.6726 20 15.181 18.9604 17.0707 17.0707C18.9604 15.181 20 12.6726 20 10C20 7.32744 18.9604 4.81902 17.0707 2.92929ZM16.2668 16.2668C14.5918 17.9419 12.3653 18.8636 10 18.8636C7.63468 18.8636 5.40825 17.9419 3.73316 16.2668C0.277778 12.8114 0.277778 7.18855 3.73316 3.73316C5.40825 2.05808 7.63468 1.13636 10 1.13636C12.3653 1.13636 14.5918 2.05808 16.2668 3.73316C19.7222 7.18855 19.7222 12.8114 16.2668 16.2668Z" fill="#EB5757"/>
<path d="M14.4065 5.59332C14.1834 5.37026 13.8256 5.37026 13.6026 5.59332L9.99989 9.19602L6.3972 5.59332C6.17413 5.37026 5.81639 5.37026 5.59332 5.59332C5.37026 5.81639 5.37026 6.17413 5.59332 6.3972L9.19602 9.99989L5.59332 13.6026C5.37026 13.8256 5.37026 14.1834 5.59332 14.4065C5.70275 14.5159 5.85006 14.5748 5.99316 14.5748C6.13625 14.5748 6.28356 14.5201 6.39299 14.4065L9.99568 10.8038L13.5984 14.4065C13.7078 14.5159 13.8551 14.5748 13.9982 14.5748C14.1455 14.5748 14.2886 14.5201 14.398 14.4065C14.6211 14.1834 14.6211 13.8256 14.398 13.6026L10.8038 9.99989L14.4065 6.3972C14.6295 6.17413 14.6295 5.81639 14.4065 5.59332Z" fill="#EB5757"/>
</svg>
