<svg width="20" height="20" viewBox="0 0 20 20" fill="none" xmlns="http://www.w3.org/2000/svg">
<path d="M10 0C4.48601 0 0 4.48601 0 10C0 15.514 4.48601 20 10 20C15.514 20 20 15.514 20 10C19.9996 4.48601 15.514 0 10 0ZM10 18.3882C5.37467 18.3882 1.61179 14.6253 1.61179 9.99964C1.61179 5.37431 5.37467 1.61143 10 1.61143C14.6253 1.61143 18.3882 5.37467 18.3882 10C18.3882 14.6253 14.6253 18.3882 10 18.3882ZM9.33953 12.25H13.6605C13.9796 12.25 14.25 11.9962 14.25 11.6694C14.25 11.3426 13.9796 11.0889 13.6605 11.0889H9.92907V5.33056C9.92907 5.00375 9.65868 4.75 9.33953 4.75C9.02039 4.75 8.75 5.00375 8.75 5.33056V11.6694C8.75 11.9962 9.02039 12.25 9.33953 12.25Z" fill="#F2994A"/>
</svg>
