<?xml version="1.0" encoding="UTF-8"?><svg xmlns="http://www.w3.org/2000/svg" xmlns:xlink="http://www.w3.org/1999/xlink"><symbol viewBox="0 0 20 20" id="close" xmlns="http://www.w3.org/2000/svg"><path d="m12.151 10 6.01-6.01L19.4 2.752a.469.469 0 0 0 0-.662L18.074.763a.469.469 0 0 0-.663 0L10.163 8.01 2.914.762a.469.469 0 0 0-.663 0L.925 2.088a.469.469 0 0 0 0 .663L8.174 10l-7.25 7.249a.469.469 0 0 0 0 .662l1.327 1.326c.183.183.48.183.662 0l7.25-7.248 6.009 6.009 1.24 1.24c.182.182.48.182.662 0L19.4 17.91a.469.469 0 0 0 0-.662L12.15 10Z"/></symbol><symbol viewBox="0 0 50 51" id="facebook" xmlns="http://www.w3.org/2000/svg"><path d="M25 .44c6.905 0 13.155 2.8 17.68 7.32A24.92 24.92 0 0 1 50 25.44c0 6.905-2.8 13.155-7.32 17.68A24.92 24.92 0 0 1 25 50.44c-6.905 0-13.155-2.8-17.68-7.32A24.941 24.941 0 0 1 0 25.44c0-6.905 2.8-13.155 7.32-17.68A24.941 24.941 0 0 1 25 .44Z"/><path d="M25 16.52a4.996 4.996 0 0 1 4.995 4.995A4.993 4.993 0 0 1 25 26.51a4.993 4.993 0 0 1-4.995-4.995A4.993 4.993 0 0 1 25 16.52Zm0-5.46c5.775 0 10.455 4.68 10.455 10.455 0 .225-.01.445-.02.665l-.01.13v.01c-.465 6.79-6.795 13.1-10.835 17.505-3.445-4.2-8.31-10.205-9.675-15.565a10.37 10.37 0 0 1-.365-2.75c0-5.775 4.68-10.455 10.455-10.455L25 11.06Z"/></symbol><symbol viewBox="0 0 50 51" id="location" xmlns="http://www.w3.org/2000/svg"><path d="M25 .44a24.92 24.92 0 0 1 17.675 7.32 24.92 24.92 0 0 1 7.32 17.68c0 6.905-2.8 13.155-7.32 17.68A24.918 24.918 0 0 1 25 50.44c-6.9 0-13.155-2.8-17.68-7.32A24.941 24.941 0 0 1 0 25.44c0-6.905 2.8-13.155 7.32-17.68A24.941 24.941 0 0 1 25 .44Z"/><path d="m11.87 18.08 8.475 7.105-8.475 7.105V18.075v.005Zm24.87-1.015-11.65 9.77s-.05.015-.07 0l-11.645-9.77H36.74Zm1.39 15.23-8.475-7.105 8.475-7.105V32.3v-.005Zm-9.77-6.02 8.99 7.54H12.645l8.99-7.54 2.905 2.44c.25.21.66.21.905.005l2.91-2.445h.005ZM11.5 15.525h27c.645 0 1.17.525 1.17 1.17V34.18c0 .645-.525 1.17-1.17 1.17h-27c-.645 0-1.17-.525-1.17-1.17V16.695c0-.645.525-1.17 1.17-1.17Z"/></symbol><symbol viewBox="0 0 120 120" id="logo" xmlns="http://www.w3.org/2000/svg"><path d="M0 43.158c.158-.737.237-1.526.474-2.237.947-3.026 2.973-5.026 6-5.947 3.263-.974 6.447-.842 9.447.947 1.421.842 2.474 2.026 3.184 3.5.08.158.158.29.263.5 3.71-1.868 7.395-3.737 11.158-5.632 0 2.211-.105 4.29.027 6.369.105 1.447-.369 2.105-1.685 2.631-2.79 1.132-5.473 2.448-8.21 3.658-.342.158-.5.342-.474.737.026 1.027 0 2.053 0 3.132h10.29v7.131c-.237 0-.474.027-.684.027H.657c-.21 0-.421-.053-.632-.08C0 52.975 0 48.08 0 43.159Zm13.5 7.631c0-2.052.053-4.026-.026-5.973-.027-1.053-.527-1.948-1.448-2.527-1.131-.736-2.368-.789-3.579-.184-1.236.632-1.79 1.71-1.815 3.053-.027 1.763 0 3.553 0 5.316 0 .105.026.21.052.316H13.5ZM120 77.105c-.105.605-.184 1.21-.342 1.79-.895 3.71-3.921 6.316-7.921 6.868-2.921.395-5.684.026-8.158-1.71-1.184-.843-2.105-1.921-2.711-3.237a2.32 2.32 0 0 0-.236-.421c-3.711 1.868-7.395 3.737-11.158 5.631 0-2.368.052-4.631-.027-6.894-.052-1 .263-1.474 1.184-1.869 2.895-1.237 5.764-2.579 8.632-3.842.395-.184.553-.395.553-.842-.027-1 0-2 0-3.079h-10.29v-7.105c.158-.027.316-.053.5-.053H120v14.763Zm-13.474-7.579c0 2.106-.131 4.184.027 6.21.157 1.843 1.736 3 3.526 2.896 1.921-.132 3.184-1.474 3.21-3.395.027-1.737 0-3.474 0-5.184 0-.158-.026-.343-.052-.527h-6.711ZM103.553 120c-1.29-.211-2.606-.395-3.869-.684-2.763-.632-5.237-1.816-7.447-3.737a998.685 998.685 0 0 0 4.158-5.368c1.71 1.5 3.631 2.552 5.763 3.131 1.895.5 3.842.737 5.789.342a4.843 4.843 0 0 0 1.579-.631c1.342-.816 1.316-2.395-.079-3.106-.894-.447-1.921-.763-2.894-1-2.158-.526-4.369-.894-6.527-1.447-1.868-.474-3.605-1.263-4.973-2.684-2.58-2.658-2.448-7.158.263-9.948 1.974-2.026 4.447-3 7.184-3.342 4.737-.605 9.263.053 13.474 2.421.631.343 1.21.79 1.842 1.21-1.448 1.738-2.869 3.422-4.211 5.027-1.289-.631-2.473-1.29-3.763-1.816-1.921-.763-3.921-1.105-6-.868-.553.053-1.105.263-1.605.5-.658.29-.948.895-.948 1.605 0 .684.395 1.211 1.027 1.395a44 44 0 0 0 4.052 1.079c2.685.553 5.395 1 7.869 2.237 2.289 1.131 3.947 2.789 4.237 5.447.421 3.842-1.421 7.026-4.921 8.711-1.606.763-3.29 1.158-5.053 1.368a5.118 5.118 0 0 0-.684.132c-1.448.026-2.869.026-4.263.026ZM16.842 0c1.342.21 2.684.395 4 .684 2.237.5 4.316 1.421 6.21 2.763.185.132.37.29.606.474-1.447 1.71-2.842 3.395-4.158 4.974-1.474-.684-2.842-1.421-4.29-1.948-1.92-.71-3.947-1-6-.605-.526.105-1.052.342-1.447.684-.895.737-.816 2.132.237 2.58 1.29.552 2.684.894 4.079 1.184 2.526.526 5.079.947 7.474 2 1.552.684 2.947 1.578 3.868 3.026 1.816 2.868 1.158 7.184-1.447 9.658-1.948 1.842-4.342 2.684-6.921 3.026-4.342.553-8.58.237-12.632-1.5-1.526-.658-2.947-1.526-4.21-2.684C3.579 22.526 4.947 20.79 6.316 19c.158.105.29.184.42.29 3.08 2.5 6.632 3.605 10.606 3.184a5.305 5.305 0 0 0 1.974-.658c1.447-.79 1.474-2.474-.026-3.184-1.106-.527-2.29-.843-3.5-1.106-2.527-.552-5.106-.894-7.5-1.868-1.922-.79-3.606-1.842-4.527-3.79-1.447-3.079-.552-6.79 2.184-9C8 1.184 10.447.448 13.027.158c.263-.026.5-.08.763-.132C14.816 0 15.841 0 16.841 0ZM13.553 120c-1.316-.211-2.632-.395-3.948-.684-2.763-.632-5.237-1.816-7.473-3.737 1.368-1.79 2.736-3.526 4.079-5.29.973.632 1.868 1.316 2.868 1.843 2.737 1.447 5.658 2.079 8.763 1.526a4.83 4.83 0 0 0 1.632-.658c1.263-.816 1.236-2.342-.106-3.026-.92-.474-1.947-.79-2.947-1.027-2.079-.5-4.21-.842-6.29-1.368-1.894-.474-3.71-1.263-5.131-2.684-2.447-2.421-2.579-6.658-.342-9.448 1.79-2.237 4.263-3.368 7-3.815 4.974-.816 9.737-.185 14.184 2.315.605.343 1.158.763 1.816 1.185-1.474 1.736-2.869 3.42-4.316 5.131-1.842-1.316-3.842-2.184-6.026-2.605-1.421-.29-2.869-.395-4.316-.08-.316.08-.632.212-.921.37-.658.368-1 .92-.974 1.657.027.711.448 1.184 1.053 1.395 1.053.368 2.132.684 3.21.921 2.632.526 5.316.921 7.816 2 .816.342 1.632.79 2.342 1.29 3.342 2.315 3.369 6.315 1.974 9.236-1.29 2.711-3.658 4.079-6.395 4.816-1.158.316-2.368.474-3.526.684-1.316.053-2.658.053-4.026.053ZM106.974 0c1.316.21 2.631.368 3.947.684a16.902 16.902 0 0 1 6.842 3.237 744.443 744.443 0 0 1-4.289 5.105 15.313 15.313 0 0 0-5-2.368c-1.711-.447-3.448-.684-5.211-.342-.447.105-.921.29-1.316.579-1.026.737-.973 2.158.132 2.71.842.421 1.789.684 2.711.921 2.473.606 4.947 1.106 7.421 1.737.789.21 1.552.58 2.289.974 3.5 1.895 4.79 5.079 3.579 8.895-.947 2.973-3.132 4.657-5.947 5.657-2.553.921-5.237 1.053-7.921.921-3.869-.184-7.527-1.105-10.764-3.394a15.794 15.794 0 0 1-.79-.605c-.13-.106-.262-.237-.446-.395 1.368-1.79 2.763-3.553 4.157-5.369a14.048 14.048 0 0 0 4.579 2.737c2.316.816 4.711 1.237 7.158.684.606-.131 1.237-.473 1.737-.868.895-.737.869-1.921-.079-2.579a7.91 7.91 0 0 0-2.263-1c-2.079-.5-4.21-.842-6.289-1.368a21.827 21.827 0 0 1-4.106-1.5c-4.973-2.448-4.816-8.421-1.79-11.474 2.159-2.158 4.869-3.053 7.79-3.395.29-.026.553-.105.842-.131 1-.053 2.027-.053 3.027-.053ZM120 49.474c-.158.79-.237 1.605-.474 2.368-.842 2.737-2.631 4.632-5.263 5.658-2.631 1.053-5.342 1.132-8.052.29-4.053-1.264-6.369-4.553-6.395-8.948-.026-2.026 0-4.079 0-6.105v-.763h-10.29V34.79h29.764c.236 0 .473-.027.71-.027v14.71ZM113.29 42h-6.737c0 2.184-.132 4.316.052 6.447.132 1.71 1.606 2.658 3.448 2.606 1.684-.053 3.131-1.158 3.21-2.71.105-2.106.027-4.211.027-6.343ZM0 70.395c.158-.737.263-1.5.474-2.237.842-2.71 2.631-4.605 5.29-5.658 2.604-1.026 5.289-1.132 7.973-.29 4.026 1.264 6.395 4.527 6.447 8.843.026 2.079 0 4.157 0 6.237v.763h10.29v7.157H.737c-.237 0-.474 0-.71.027C0 80.316 0 75.342 0 70.395Zm13.421 7.658c.053-.08.079-.106.079-.158 0-1.237.026-2.5.026-3.737 0-.868.027-1.763-.105-2.632-.263-1.631-1.71-2.631-3.474-2.552-1.763.079-3.131 1.21-3.21 2.868-.105 2-.026 4.026-.053 6.053 0 .052.053.105.08.158h6.657ZM82.763 109.342c2.08 3.395 4.105 6.711 6.158 10.105-.29.027-.474.027-.658.027-2.553 0-5.131 0-7.684.026-.5 0-.737-.158-.947-.579-1.474-2.789-3-5.553-4.5-8.316-.185-.342-.395-.5-.816-.5-1.132.027-2.263 0-3.474 0v9.342H63v-27.71h.684c4.895 0 9.79-.026 14.658 0 2.21 0 4.368.42 6.29 1.631 3.105 1.948 4.42 4.843 4.157 8.421-.263 3.474-2.131 5.843-5.289 7.237-.237.079-.447.185-.737.316ZM70.843 97.79v6.184c.104.026.21.079.315.079 1.974 0 3.947.052 5.92-.027.764-.026 1.58-.263 2.238-.605 1.552-.816 1.947-2.71.974-4.132-.685-.973-1.685-1.42-2.816-1.473-2.184-.08-4.369-.026-6.632-.026ZM70.816 18.816v9.342h-7.869V1.21c0-.58.132-.79.764-.764 4.842.027 9.684 0 14.526.027 2.605 0 5.079.5 7.184 2.131 2.974 2.316 3.895 5.448 3.21 9.08-.578 2.973-2.447 4.92-5.184 6.104-.184.08-.394.158-.657.29 2.026 3.342 4.052 6.658 6.131 10.079-.29.026-.474.052-.684.052h-7.684c-.448 0-.685-.131-.921-.526-1.5-2.816-3.053-5.631-4.58-8.42-.105-.185-.315-.422-.5-.422-1.21-.052-2.42-.026-3.736-.026Zm.026-12.342v6.21c.132.027.21.053.29.053 2.026 0 4.026.053 6.052-.027.737-.026 1.526-.263 2.184-.631 2.027-1.158 1.974-3.947-.105-5.026-.684-.369-1.526-.527-2.316-.58-1.631-.078-3.29-.026-4.92-.026-.395.027-.764.027-1.185.027ZM41.132 18.816v9.342h-7.843V.448h.658c4.895 0 9.79-.027 14.658 0 2.763 0 5.342.657 7.527 2.473 4.579 3.868 4.184 12.526-2.869 15.105-1.447.527-2.974.764-4.5.79-2.29.026-4.552 0-6.842 0h-.79Zm.052-6.132c.132.027.21.053.29.053 2.026 0 4.079.026 6.105-.027.579 0 1.184-.157 1.71-.368 1.448-.579 2.106-1.974 1.737-3.5-.342-1.421-1.71-2.368-3.473-2.395-1.342-.026-2.685 0-4 0h-2.395c.026 2.132.026 4.158.026 6.237ZM33.316 119.447V91.763c.237 0 .447-.026.658-.026 4.92 0 9.816-.026 14.737 0 2.42 0 4.763.5 6.763 1.947 3.026 2.184 4.105 5.237 3.552 8.816-.552 3.553-2.763 5.868-6.158 6.895-1.42.447-2.973.579-4.447.658-2.132.105-4.29.026-6.447.026h-.79v9.342c-2.684.026-5.237.026-7.868.026Zm7.868-21.657v6.157c2.421 0 4.79.079 7.158-.026 1.184-.053 2.158-.737 2.605-1.921.764-2.026-.579-4.026-2.92-4.184-2.264-.132-4.5-.026-6.843-.026Z"/></symbol><symbol viewBox="0 0 50 51" id="mail" xmlns="http://www.w3.org/2000/svg"><path d="M25 .44c6.905 0 13.155 2.8 17.68 7.32A24.92 24.92 0 0 1 50 25.44c0 6.905-2.8 13.155-7.32 17.68A24.92 24.92 0 0 1 25 50.44a24.92 24.92 0 0 1-17.675-7.32A24.925 24.925 0 0 1 0 25.44c0-6.905 2.8-13.155 7.32-17.68A24.941 24.941 0 0 1 25 .44Z"/><path d="m22.825 18.635-.585-5.695c-.165-1.635-3.56-1.485-4.83-.885-5.36 2.54-3.835 9.75-1.885 14.105 3.705 7.165 7.82 11.35 12.335 12.555 3.535 1.26 8.11.395 8.4-3.99.04-.6-.02-1.085-.18-1.455-.275-.56-2.255-1.605-5.935-3.145-.715-.255-1.55.035-2.5.87-.14.13-.285.24-.43.33-.7.455-1.095.49-1.74 0-1.965-1.515-4.945-6.855-5.57-8.46-.155-.64.125-1.135.835-1.49 1.38-.615 2.075-1.525 2.08-2.74"/></symbol><symbol viewBox="0 0 50 51" id="phone" xmlns="http://www.w3.org/2000/svg"><path d="M49.332 31.181c3.172-13.438-5.15-26.903-18.59-30.075C17.305-2.066 3.84 6.256.669 19.696c-3.172 13.437 5.15 26.902 18.589 30.074 13.438 3.172 26.903-5.15 30.075-18.589Z"/><path d="m34.105 32.086 1.07-6.546H27.6v-4.991c0-2.061.552-3.527 3.507-3.527h4.376v-6.598s-2.778-.61-5.381-.61c-5.436 0-9.033 3.59-9.033 9.684v6.042h-6.553v6.546h6.552V50.13a25.099 25.099 0 0 0 6.533.176V32.084h6.504v.002Z"/></symbol><symbol viewBox="0 0 176 111" fill="none" id="quote" xmlns="http://www.w3.org/2000/svg"><path d="M77.53 37.33c.01-.52.03-1.03.03-1.56l-.11.07C76.06 15.82 59.38 0 39 0 18.62 0 .44 17.26.44 38.56c0 19.45 14.4 35.52 33.11 38.17-1.43 9.54-4.71 22.83-12.22 33.71 0 0 51.34-7.99 55.9-66.92.21-1.63.33-3.28.33-4.97 0-.41-.02-.82-.03-1.23v.01ZM175.53 37.33c.01-.52.03-1.03.03-1.56l-.11.07C174.06 15.82 157.38 0 137 0c-20.38 0-38.56 17.26-38.56 38.56 0 19.45 14.4 35.52 33.11 38.17-1.43 9.54-4.71 22.83-12.22 33.71 0 0 51.34-7.99 55.9-66.92.21-1.63.33-3.28.33-4.97 0-.41-.02-.82-.03-1.23v.01Z" fill="#F5BBDA"/></symbol></svg>