<svg width="28" height="70" viewBox="0 0 28 70" fill="none" xmlns="http://www.w3.org/2000/svg">
<path d="M0.025731 0H10.9484C12.3414 0 15.9497 1.23487 17.2965 1.9018C30.2084 8.23245 32.3261 27.4172 18.2782 33.7478C15.1839 35.1442 13.2769 34.8889 10.3008 33.2268C8.15222 32.0284 7.17046 30.5434 6.95458 28.0216C6.38917 21.3679 7.91578 12.5623 6.84664 6.24728C6.66159 5.15831 6.06534 3.91302 5.17097 3.25651C3.40791 1.94348 -0.339216 2.63126 0.025731 0Z" fill="white"/>
<path d="M0 70L0.0359807 68.7339C3.20742 67.4261 6.15783 67.9523 6.82605 63.7579C7.86949 57.2084 6.32232 48.5227 6.92885 41.7179C7.20641 38.6177 9.5246 36.8149 12.2797 35.9396C15.8521 34.8089 17.502 35.653 20.5398 37.5808C33.02 45.5059 28.7023 63.909 16.0011 68.8902C15.4665 69.0986 12.7988 69.9948 12.4647 69.9948H0V70Z" fill="white"/>
</svg>
