<svg width="27" height="60" viewBox="0 0 27 60" fill="none" xmlns="http://www.w3.org/2000/svg">
<path d="M26.6446 0L26.9939 0.564137C27.0205 0.841728 26.963 1.04321 26.764 1.24021C26.2642 1.72823 23.518 2.03716 22.4831 2.72666C21.1299 3.6266 20.8867 5.28767 20.7805 6.82337C20.3914 12.4424 21.298 18.7553 20.7982 24.3027C20.5594 26.9487 18.8789 28.3412 16.5395 29.1695L13.0503 30.1097C16.4378 30.6291 20.4489 31.5782 20.7982 35.7018C21.267 41.2089 20.4268 47.383 20.7805 52.9572C20.9265 55.2765 21.1476 56.942 23.4472 57.8688C24.2344 58.1867 26.9895 58.4956 26.9895 59.4403L26.649 60H0L0.216694 58.7643C3.13101 57.7211 5.49254 57.5241 5.75788 53.8527L5.74461 5.93687C5.39525 2.38639 2.72416 2.44012 0.0309563 1.31184L0 0H26.6446Z" fill="white"/>
</svg>
