<svg width="19" height="19" viewBox="0 0 19 19" fill="none" xmlns="http://www.w3.org/2000/svg"
    xmlns:xlink="http://www.w3.org/1999/xlink">
    <path d="M4.43558 6.60617H0.278579V20H4.43558V6.60617Z" fill="white" />
    <path
        d="M10.8682 12.7013V20H6.8533L6.86526 6.60617H10.672L10.6783 8.46876H10.7409C11.0995 7.90294 11.676 7.48306 12.4033 7.04483C13.1302 6.60661 14.0134 6.38744 15.0524 6.38744C16.5444 6.38744 17.744 6.87615 18.6508 7.85279C19.5575 8.82988 19.9999 10.1853 19.9999 12.0841V19.9999H15.9714V12.5771C15.9714 10.8808 14.9015 10.1581 13.4472 10.1581C13.2323 10.1556 12.4962 10.1738 11.8116 10.7157C11.7933 10.7301 11.7754 10.7447 11.7579 10.7594C11.187 11.2368 10.8682 11.9541 10.8682 12.7013Z"
        fill="white" />
    <path
        d="M3.9398 3.96639C4.84109 3.05903 4.84109 1.58789 3.9398 0.680526C3.03852 -0.226842 1.57725 -0.226842 0.675963 0.680526C-0.225321 1.58789 -0.225321 3.05903 0.675963 3.96639C1.57725 4.87376 3.03852 4.87376 3.9398 3.96639Z"
        fill="white" />
</svg>