<svg width="162" height="60" viewBox="0 0 162 60" fill="none" xmlns="http://www.w3.org/2000/svg">
<path d="M20.3554 0L20.0061 0.564137C19.9795 0.841728 20.037 1.04321 20.236 1.24021C20.7358 1.72823 23.482 2.03716 24.5169 2.72666C25.8701 3.6266 26.1133 5.28767 26.2195 6.82337C26.6086 12.4424 25.702 18.7553 26.2018 24.3027C26.4406 26.9487 28.1211 28.3412 30.4605 29.1695L33.9497 30.1097C30.5622 30.6291 26.5511 31.5782 26.2018 35.7018C25.733 41.2089 26.5732 47.383 26.2195 52.9572C26.0735 55.2765 25.8524 56.942 23.5528 57.8688C22.7656 58.1867 20.0105 58.4956 20.0105 59.4403L20.351 60H47L46.7833 58.7643C43.869 57.7211 41.5075 57.5241 41.2421 53.8527L41.2554 5.93687C41.6048 2.38639 44.2758 2.44012 46.969 1.31184L47 0H20.3554Z" fill="white"/>
<path d="M23.9779 0H14.6156C13.4217 0 10.3288 1.05846 9.17447 1.63011C-1.89289 7.05638 -3.70808 23.5004 8.33296 28.9267C10.9853 30.1236 12.6198 29.9048 15.1708 28.4801C17.0124 27.4529 17.8539 26.1801 18.0389 24.0185C18.5236 18.3153 17.2151 10.7677 18.1315 5.35481C18.2901 4.4214 18.8011 3.35402 19.5677 2.79129C21.0789 1.66584 24.2908 2.25536 23.9779 0Z" fill="white"/>
<path d="M24 60L23.9692 58.9147C21.2508 57.7938 18.7219 58.2448 18.1491 54.6497C17.2547 49.0358 18.5809 41.5909 18.061 35.7582C17.8231 33.1009 15.8361 31.5556 13.4746 30.8053C10.4125 29.8362 8.99826 30.5597 6.39444 32.2121C-4.30283 39.005 -0.601963 54.7792 10.2848 59.0487C10.743 59.2274 13.0296 59.9955 13.3159 59.9955H24V60Z" fill="white"/>
<path d="M117.17 49.2446V54.7455H115.038V41.1993H117.453C118.636 41.1993 119.53 41.2782 120.133 41.4362C120.743 41.5941 121.28 41.8924 121.743 42.3311C122.554 43.0914 122.96 44.0507 122.96 45.2088C122.96 46.4487 122.527 47.4314 121.661 48.1566C120.795 48.8819 119.627 49.2446 118.157 49.2446H117.17ZM117.17 47.3495H117.965C119.923 47.3495 120.902 46.6271 120.902 45.1824C120.902 43.7845 119.892 43.0856 117.874 43.0856H117.17V47.3495Z" fill="white"/>
<path d="M103.322 41.1993V49.3586C103.322 50.5226 103.52 51.3736 103.917 51.9117C104.508 52.6896 105.34 53.0786 106.414 53.0786C107.493 53.0786 108.328 52.6896 108.92 51.9117C109.316 51.3911 109.515 50.5401 109.515 49.3586V41.1993H111.646V49.9201C111.646 51.3473 111.182 52.5229 110.255 53.447C109.213 54.4765 107.932 54.9912 106.414 54.9912C104.895 54.9912 103.618 54.4765 102.581 53.447C101.654 52.5229 101.191 51.3473 101.191 49.9201V41.1993H103.322Z" fill="white"/>
<path d="M83.7446 47.911C83.7446 46.0042 84.4733 44.3665 85.9307 42.9979C87.3821 41.6292 89.1261 40.9449 91.1629 40.9449C93.1752 40.9449 94.901 41.635 96.3401 43.0154C97.7854 44.3958 98.508 46.0539 98.508 47.99C98.508 49.9377 97.7823 51.59 96.331 52.947C94.8736 54.3098 93.1143 54.9912 91.0531 54.9912C89.2298 54.9912 87.5924 54.3858 86.1411 53.1751C84.5434 51.8357 83.7446 50.081 83.7446 47.911ZM85.8941 47.9373C85.8941 49.4347 86.4186 50.6659 87.4674 51.6309C88.5102 52.596 89.7146 53.0786 91.0805 53.0786C92.5624 53.0786 93.8125 52.5873 94.8309 51.6046C95.8492 50.6103 96.3584 49.3996 96.3584 47.9724C96.3584 46.5277 95.8553 45.317 94.8492 44.3402C93.8491 43.3576 92.6112 42.8663 91.1354 42.8663C89.6658 42.8663 88.4248 43.3576 87.4126 44.3402C86.4003 45.3111 85.8941 46.5102 85.8941 47.9373Z" fill="white"/>
<path d="M78.2747 48.9726L82.647 54.7455H80.0401L76.0062 49.2007H75.622V54.7455H73.4907V41.1993H75.9879C77.8539 41.1993 79.2016 41.5356 80.0309 42.2082C80.9456 42.9569 81.403 43.9454 81.403 45.1737C81.403 46.1329 81.1164 46.9576 80.5432 47.6478C79.9699 48.338 79.2138 48.7796 78.2747 48.9726ZM75.622 47.4197H76.2989C78.3174 47.4197 79.3266 46.6798 79.3266 45.2C79.3266 43.8138 78.3448 43.1207 76.3812 43.1207H75.622V47.4197Z" fill="white"/>
<path d="M64.9671 47.6917H70.803V48.1391C70.803 49.1569 70.678 50.0576 70.428 50.8414C70.184 51.5667 69.7724 52.2451 69.1931 52.8768C67.882 54.2923 66.2142 55 64.1896 55C62.2139 55 60.5216 54.3157 59.113 52.947C57.7043 51.5725 57 49.9231 57 47.9988C57 46.0335 57.7165 44.3666 59.1496 42.9979C60.5826 41.6234 62.3267 40.9361 64.3817 40.9361C65.4855 40.9361 66.516 41.1525 67.4734 41.5854C68.3882 42.0182 69.2876 42.7201 70.1718 43.691L68.6534 45.086C67.4948 43.6062 66.0831 42.8663 64.4183 42.8663C62.9243 42.8663 61.6711 43.3605 60.6588 44.349C59.6466 45.3199 59.1404 46.5365 59.1404 47.9988C59.1404 49.5078 59.7045 50.7507 60.8326 51.7275C61.8876 52.6341 63.031 53.0874 64.2628 53.0874C65.3117 53.0874 66.2538 52.7481 67.0893 52.0697C67.9247 51.3853 68.3912 50.5665 68.4888 49.6131H64.9671V47.6917Z" fill="white"/>
<path d="M113.749 33.4875H107.703L106.13 36.7775H103.834L110.822 22.3802L117.563 36.7775H115.231L113.749 33.4875ZM112.88 31.5661L110.785 26.96L108.59 31.5661H112.88Z" fill="white"/>
<path d="M102.061 23.2313V36.7776H99.9294V23.2313H102.061Z" fill="white"/>
<path d="M86.3182 36.7776V23.2313H89.2819C90.7028 23.2313 91.8248 23.3659 92.648 23.6349C93.5323 23.8981 94.3342 24.3456 95.0537 24.9773C96.5112 26.2523 97.2399 27.9281 97.2399 30.0045C97.2399 32.0867 96.4807 33.7712 94.9623 35.058C94.2 35.7014 93.4012 36.1488 92.5657 36.4003C91.7852 36.6518 90.6784 36.7776 89.2453 36.7776H86.3182ZM88.4495 34.8562H89.41C90.3674 34.8562 91.1632 34.7597 91.7974 34.5667C92.4316 34.3619 93.0048 34.0373 93.517 33.5928C94.5659 32.6745 95.0903 31.4784 95.0903 30.0045C95.0903 28.5188 94.572 27.3139 93.5353 26.3898C92.6023 25.5651 91.2272 25.1527 89.41 25.1527H88.4495V34.8562Z" fill="white"/>
<path d="M83.5157 25.1527H77.8536V28.4077H83.351V30.3291H77.8536V34.8562H83.5157V36.7776H75.7224V23.2313H83.5157V25.1527Z" fill="white"/>
<path d="M57.2094 36.7777L60.1823 22.2137L65.0302 32.7419L70.052 22.2137L72.7229 36.7777H70.5368L69.1739 28.6008L64.9936 37.4006L60.9323 28.592L59.4139 36.7777H57.2094Z" fill="white"/>
<path d="M162 7.18452H156.338V10.4395H161.835V12.3609H156.338V16.888H162V18.8094H154.207V5.26313H162V7.18452Z" fill="white"/>
<path d="M140.595 18.8094V5.26313H143.559C144.98 5.26313 146.102 5.39766 146.925 5.66671C147.81 5.92991 148.611 6.37736 149.331 7.00905C150.788 8.28413 151.517 9.95986 151.517 12.0362C151.517 14.1185 150.758 15.803 149.24 17.0898C148.477 17.7332 147.678 18.1806 146.843 18.4321C146.062 18.6836 144.956 18.8094 143.523 18.8094H140.595ZM142.727 16.888H143.687C144.645 16.888 145.44 16.7915 146.075 16.5985C146.709 16.3937 147.282 16.0691 147.794 15.6246C148.843 14.7063 149.368 13.5102 149.368 12.0362C149.368 10.5506 148.849 9.34572 147.813 8.42158C146.88 7.59687 145.504 7.18452 143.687 7.18452H142.727V16.888Z" fill="white"/>
<path d="M137.202 5.26313V18.8094H135.071V5.26313H137.202Z" fill="white"/>
<path d="M132.135 7.2811L130.406 8.26373C130.083 7.72562 129.775 7.37469 129.482 7.21091C129.177 7.02375 128.784 6.93016 128.302 6.93016C127.711 6.93016 127.22 7.09101 126.829 7.4127C126.439 7.72855 126.244 8.12628 126.244 8.6059C126.244 9.26683 126.756 9.79909 127.781 10.2027L129.189 10.7554C130.336 11.1999 131.174 11.7439 131.705 12.3873C132.235 13.0248 132.501 13.8086 132.501 14.7385C132.501 15.9844 132.068 17.0138 131.202 17.8268C130.33 18.6457 129.247 19.0551 127.954 19.0551C126.729 19.0551 125.716 18.7071 124.918 18.0111C124.131 17.315 123.64 16.3353 123.445 15.0719L125.604 14.6157C125.701 15.4112 125.872 15.961 126.116 16.2651C126.555 16.85 127.195 17.1425 128.037 17.1425C128.701 17.1425 129.253 16.929 129.692 16.502C130.131 16.075 130.351 15.534 130.351 14.8789C130.351 14.6157 130.311 14.3759 130.232 14.1595C130.159 13.9372 130.04 13.7354 129.875 13.5541C129.717 13.367 129.509 13.1944 129.253 13.0365C128.997 12.8727 128.692 12.7177 128.339 12.5715L126.976 12.0275C125.043 11.2438 124.076 10.0974 124.076 8.58835C124.076 7.57063 124.482 6.7196 125.293 6.03527C126.104 5.34509 127.113 5 128.32 5C129.949 5 131.22 5.76037 132.135 7.2811Z" fill="white"/>
<path d="M119.027 7.18452V18.8094H116.896V7.18452H113.649V5.26313H122.266V7.18452H119.027Z" fill="white"/>
<path d="M103.524 10.5623H109.616V5.26313H111.747V18.8094H109.616V12.4837H103.524V18.8094H101.393V5.26313H103.524V10.5623Z" fill="white"/>
<path d="M92.8644 11.7556H98.7002V12.203C98.7002 13.2207 98.5752 14.1215 98.3252 14.9053C98.0813 15.6305 97.6697 16.309 97.0904 16.9407C95.7793 18.3561 94.1114 19.0639 92.0869 19.0639C90.1111 19.0639 88.4189 18.3795 87.0102 17.0109C85.6016 15.6364 84.8972 13.987 84.8972 12.0626C84.8972 10.0974 85.6138 8.43043 87.0468 7.06177C88.4799 5.68726 90.2239 5 92.279 5C93.3827 5 94.4133 5.21641 95.3707 5.64924C96.2854 6.08206 97.1849 6.78394 98.0691 7.75487L96.5507 9.14985C95.392 7.67006 93.9803 6.93016 92.3156 6.93016C90.8215 6.93016 89.5684 7.4244 88.5561 8.41288C87.5438 9.38381 87.0377 10.6004 87.0377 12.0626C87.0377 13.5717 87.6017 14.8146 88.7299 15.7914C89.7849 16.698 90.9282 17.1513 92.1601 17.1513C93.2089 17.1513 94.1511 16.812 94.9865 16.1335C95.822 15.4492 96.2885 14.6303 96.386 13.677H92.8644V11.7556Z" fill="white"/>
<path d="M82.2082 5.26313V18.8094H80.0769V5.26313H82.2082Z" fill="white"/>
<path d="M73.5749 13.0364L77.9472 18.8094H75.3403L71.3064 13.2645H70.9222V18.8094H68.7909V5.26313H71.2881C73.1541 5.26313 74.5018 5.59945 75.3311 6.27208C76.2458 7.02075 76.7032 8.00923 76.7032 9.23751C76.7032 10.1967 76.4166 11.0215 75.8434 11.7116C75.2701 12.4018 74.514 12.8434 73.5749 13.0364ZM70.9222 11.4835H71.5991C73.6176 11.4835 74.6268 10.7436 74.6268 9.26383C74.6268 7.87762 73.645 7.18452 71.6814 7.18452H70.9222V11.4835Z" fill="white"/>
<path d="M57.7022 18.8094V5.26313H59.8243C60.7695 5.26313 61.5226 5.33332 62.0836 5.47369C62.6508 5.61407 63.1295 5.85095 63.5197 6.18434C63.9161 6.52943 64.2302 6.95933 64.4619 7.47404C64.6997 7.9946 64.8186 8.52101 64.8186 9.05327C64.8186 10.0242 64.4314 10.846 63.6569 11.5186C64.407 11.7643 64.9985 12.1942 65.4315 12.8083C65.8705 13.4166 66.0901 14.1243 66.0901 14.9315C66.0901 15.9902 65.6998 16.8851 64.9192 17.6162C64.4497 18.0665 63.9222 18.3795 63.3368 18.5549C62.6965 18.7246 61.8946 18.8094 60.9311 18.8094H57.7022ZM59.8334 11.0799H60.5012C61.2939 11.0799 61.8733 10.9132 62.2391 10.5799C62.6111 10.2406 62.7971 9.74345 62.7971 9.08836C62.7971 8.45082 62.6081 7.96828 62.23 7.64074C61.8519 7.30735 61.3031 7.14065 60.5835 7.14065H59.8334V11.0799ZM59.8334 16.888H61.1506C62.1141 16.888 62.8215 16.7067 63.2728 16.344C63.7484 15.9521 63.9862 15.455 63.9862 14.8525C63.9862 14.2676 63.7576 13.7763 63.3002 13.3786C62.855 12.9867 62.0592 12.7908 60.9128 12.7908H59.8334V16.888Z" fill="white"/>
</svg>
