<svg width="250" height="79" viewBox="0 0 250 79" fill="none" xmlns="http://www.w3.org/2000/svg">
    <path
        d="M59.1734 65.4971C59.1044 68.107 59.0354 70.6778 58.9276 73.2876C58.9276 73.5694 58.8931 73.8512 58.8241 74.133C58.7551 74.4494 58.5094 74.6619 58.1946 74.5925C57.9833 74.5578 57.7375 74.3801 57.6685 74.2067C57.5607 73.8165 57.5262 73.4307 57.5607 73.0405C57.5607 70.7471 57.6297 68.4234 57.6685 66.1301C57.703 63.4856 57.703 60.8411 57.772 58.1965C57.772 57.2818 57.8755 56.3627 57.9488 55.4827C57.9833 55.2356 57.9833 54.9538 58.1256 54.776C58.2334 54.5983 58.4749 54.4249 58.6516 54.4249C58.8284 54.4249 59.1087 54.6373 59.1777 54.8107C59.2855 55.2702 59.389 55.7254 59.389 56.2197C59.389 57.3468 59.3545 58.513 59.32 59.6749C59.2855 60.5202 59.1777 61.4003 59.3545 62.3194C59.5658 62.3194 59.7728 62.3887 59.9151 62.3194C61.9503 61.6821 63.9468 61.0838 65.9432 60.3815C67.7672 59.7486 69.9059 58.409 71.0271 56.7876C71.8334 55.6604 71.7644 54.4596 70.8891 53.3324C68.2933 49.8425 60.5101 49.1705 56.6552 49.1705C55.3918 49.1705 54.0939 49.2399 52.8348 49.383C50.4503 49.6648 48.0657 49.9812 45.7157 50.263C45.3319 50.2977 44.9438 50.3671 44.5601 50.3671C44.2798 50.3671 43.9305 50.3324 43.9305 49.9812C43.9305 49.383 45.5432 49.0275 45.9658 48.9581C47.7898 48.6069 49.6482 48.2905 51.4722 48.0434C53.9602 47.6922 56.4525 47.6185 58.9406 47.7269C61.9546 47.8656 64.9385 48.3252 67.7758 49.4523C69.9836 50.3671 72.8597 52.1315 73.0364 54.8107C73.1399 55.9726 72.8596 57.065 72.0878 57.9148C70.2293 59.9957 68.2674 61.37 65.5681 62.1806C63.7786 62.7096 61.9546 63.1691 60.1695 63.6243C59.8892 63.6937 59.6434 63.802 59.2941 63.9061C59.2596 64.4697 59.2252 64.9639 59.1863 65.4928L59.1734 65.4971Z" fill="white"/>
    <path
        d="M73.5453 67.9639C73.791 67.539 73.9635 67.1185 74.2093 66.7283C74.6664 66.0607 75.0846 65.3541 75.6107 64.7211C75.9988 64.2616 76.486 63.9798 77.0466 63.9798C77.2924 63.9798 77.5727 64.0492 77.8184 64.1575C79.4656 64.9335 81.0093 65.6359 82.9368 65.6359C83.5318 65.6359 84.1657 65.5665 84.8297 65.4234C85.7396 65.0723 86.1621 66.2688 84.9677 66.5506C84.0924 66.763 83.286 66.8671 82.5832 66.8671C79.4958 66.8671 77.6373 65.315 77.0768 65.4581C76.4472 65.5968 75.8479 66.62 75.4986 67.3266C74.869 68.4191 74.343 69.5463 73.7824 70.6387C73.6444 70.9552 73.5021 71.2717 73.2908 71.5188C73.1141 71.6965 72.7993 71.87 72.5535 71.8353C71.8895 71.8353 71.8161 70.9899 71.8161 70.4957C71.8161 68.909 71.8162 67.3223 71.8506 65.7356C71.8506 65.4191 71.9196 65.0636 72.0619 64.7818C72.1309 64.5694 72.3422 64.4653 72.5535 64.4653C73.0796 64.4653 73.2175 65.4191 73.2563 65.8396C73.2908 66.5072 73.2563 67.1792 73.2563 67.8468L73.5366 67.9552L73.5453 67.9639Z" fill="white"/>
    <path
        d="M88.2664 68.6705C87.8481 70.2226 86.5114 72.724 84.6572 72.724C83.8509 72.724 83.1826 72.1951 82.9023 71.2413C82.7988 70.9596 82.7255 70.6084 82.7255 70.2919C82.76 68.4928 83.355 66.9061 84.5494 65.5665L84.6529 65.4624C85.0022 65.1807 85.2825 65.0029 85.5628 65.0029C85.7007 65.0029 85.843 65.0723 85.9465 65.1416C86.2613 65.3887 86.2268 65.8136 85.7008 66.4119C84.9634 67.2572 84.4718 68.211 84.2649 69.3035C84.1269 69.9711 84.0191 70.6431 84.6141 71.276C84.8944 71.1373 85.2437 71.0289 85.455 70.8165C86.4036 69.9018 86.9297 68.7356 86.9987 67.3613C87.0332 67.0101 86.9642 66.62 86.9987 66.2341C87.0332 65.5665 87.3479 65.2847 88.0508 65.3887C88.3311 65.4581 88.6458 65.4928 88.8571 65.6705C89.8015 66.3078 91.1382 66.5506 92.5051 66.5506C94.329 66.5506 96.1875 66.1257 97.2741 65.4581C97.5199 65.3194 97.9425 65.1069 98.2918 65.1069C98.4686 65.1069 98.6798 65.1763 98.7833 65.3887C99.0981 65.9176 98.4685 66.3425 98.0805 66.5506C96.5023 67.4653 94.5403 67.8902 92.6474 67.8902C91.246 67.8902 89.8403 67.6778 88.6157 67.2572C88.4777 67.7861 88.3699 68.2457 88.2664 68.6662V68.6705Z" fill="white"/>
    <path
        d="M104.117 63.1344C103.134 65.4624 102.013 67.7515 100.784 69.9711C100.327 70.8165 99.2059 72.2255 98.1193 72.2255C97.1361 72.2255 96.4376 71.0289 96.4376 70.1098C96.3686 67.9596 96.8947 66.0217 98.4384 64.4697C98.9989 63.9061 99.6285 63.5896 100.331 63.5896C100.926 63.5896 101.521 63.8714 102.047 64.1185C102.185 63.802 102.397 63.5549 102.539 63.2731C103.768 60.5939 104.609 57.7717 105.027 54.8497C105.062 54.4292 105.131 54.0043 105.273 53.6142C105.376 53.4017 105.657 53.1893 105.902 53.12C106.29 53.0506 106.566 53.3324 106.605 53.6835C106.674 54.2124 106.674 54.7413 106.64 55.2702C106.217 59.5361 105.73 63.7674 105.342 68.0332C105.062 71.133 104.919 74.2717 104.712 77.3757C104.678 77.6575 104.712 77.974 104.643 78.2558C104.574 78.75 104.294 79.0318 103.94 78.9971C103.591 78.9624 103.38 78.646 103.345 78.1171C103.345 77.974 103.345 77.8353 103.38 77.6922C103.449 73.2876 103.802 68.8786 104.29 64.474C104.324 64.0535 104.324 63.6286 104.359 63.2038L104.113 63.1344H104.117ZM100.262 65.0376C99.982 65.0376 99.7018 65.2153 99.387 65.6012C98.1581 66.9408 97.6708 68.5275 98.0201 70.3613C98.0201 70.4653 98.1969 70.539 98.2659 70.6431C99.3525 69.9017 100.616 67.8598 101.319 65.7789C100.896 65.2847 100.581 65.0376 100.267 65.0376H100.262Z" fill="white"/>
    <path
        d="M115.367 69.9364C114.738 70.5694 114.138 71.276 113.405 71.8049C112.983 72.1214 112.53 72.2645 112.142 72.2645C111.404 72.2645 110.809 71.7356 110.564 70.7124C110.176 69.1951 110.283 67.1879 110.421 65.6359C110.456 65.4581 110.564 65.2847 110.702 65.1416C110.878 64.8598 111.405 64.8945 111.542 65.1763C111.685 65.5275 111.788 65.9176 111.788 66.3035C111.823 67.2529 111.823 68.7009 111.857 69.6503C111.857 70.0405 111.857 70.461 112.28 70.6734C113.509 70.6041 115.609 67.3223 116.135 66.3729C116.312 66.0217 116.45 65.6662 116.73 65.3844C116.907 65.172 117.221 65.0332 117.467 65.0332C117.816 65.0679 118.028 65.3844 118.062 65.7399C118.097 66.1257 118.062 66.5159 118.028 66.8671C117.993 67.8555 117.89 68.8049 117.89 69.7587C117.89 70.9942 118.45 71.5578 119.679 71.5231C122.31 71.4191 126.233 67.6474 127.812 65.8483C128.161 65.4971 128.721 64.7905 129.002 65.0723C129.316 65.4234 129.213 65.883 128.967 66.1301C126.828 68.3844 122.9 72.4769 119.675 72.7587C117.713 72.8974 116.553 71.948 116.415 69.9755C116.415 69.6937 116.381 69.4119 116.346 69.1301C116.346 69.0954 116.277 69.0607 116.169 68.987C115.889 69.3035 115.643 69.62 115.363 69.9408L115.367 69.9364Z" fill="white"/>
    <path
        d="M129.778 65.7789C129.114 66.8367 128.903 68.0333 128.972 69.2341C129.041 70.2226 129.532 70.7124 130.481 70.8555C134.336 71.5231 139.95 68.1416 142.541 65.5318C143.451 64.6864 144.715 65.4278 143.348 66.5202C140.894 69.0954 134.163 72.6546 130.269 72.3035C128.726 72.1648 127.708 71.107 127.536 69.5896C127.359 67.8252 127.712 66.1344 128.799 64.6908C129.502 63.7023 130.446 63.0694 131.675 63.0347C132.727 63 133.499 63.776 133.499 64.8338C133.499 65.185 133.391 65.5015 133.008 65.6098C132.693 65.6792 132.482 65.4711 132.339 65.1893C132.236 64.9769 132.128 64.7992 131.99 64.5174C130.869 64.448 130.235 65.0463 129.782 65.7876L129.778 65.7789Z" fill="white"/>
    <path
        d="M145.762 59.185C147.832 59.1503 149.898 59.1156 151.933 59.1156C155.158 59.0463 158.349 59.0463 161.54 59.0116C161.82 59.0116 162.45 59.0463 162.45 59.4321C162.45 59.5405 162.342 59.6792 162.239 59.7486C162.135 59.8179 161.958 59.8179 161.82 59.8526C160.208 59.922 158.595 60.0304 156.948 60.0997C153.231 60.2038 149.514 60.3122 145.762 60.4162C145.448 60.4509 145.098 60.4856 144.745 60.5202C144.641 60.7674 144.499 60.9798 144.499 61.1922C144.15 64.1185 144.076 67.0448 144.184 69.9711C144.184 70.5347 144.322 71.133 144.534 71.6619C144.779 72.2601 145.305 72.4726 145.935 72.3295C149.406 71.4148 152.459 68.4538 154.947 65.9827C155.404 65.4538 155.822 65.2413 156.103 65.2413C156.629 65.2413 156.698 66.0174 155.753 67.0058C153.895 69.052 151.825 70.8468 149.475 72.2211C148.492 72.7847 146.633 73.7385 145.478 73.7385C143.162 73.7385 142.71 71.198 142.71 69.3685C142.744 67.3223 142.813 65.2457 142.886 63.1994C142.921 62.3887 142.99 61.578 143.024 60.6633C142.464 60.5549 140.079 60.5549 139.657 60.4162C139.445 60.3815 139.2 60.1344 139.2 59.9567C139.2 59.7789 139.411 59.4971 139.588 59.4624C140.079 59.2847 142.533 59.1807 143.128 59.0766C143.162 58.6864 143.231 58.3353 143.266 57.9494C143.374 57.1387 143.443 56.328 143.512 55.5174C143.581 55.1315 143.65 54.7413 144.141 54.672C144.49 54.6373 144.702 54.9885 144.736 55.6604C144.736 56.2934 144.702 56.9306 144.702 57.5289V59.0809C145.193 59.1503 145.474 59.185 145.754 59.185H145.762Z" fill="white"/>
    <path
        d="M158.698 70.9596C159.505 70.9249 160.277 70.6431 161.014 70.2919C163.118 69.3035 164.908 67.8945 166.693 66.4162C167.081 66.1344 167.43 65.8179 167.814 65.5708C168.163 65.3237 168.517 65.3931 168.724 65.6402C169.073 66.1344 168.655 66.5939 168.336 66.8757C166.231 68.7442 164.058 70.4697 161.536 71.6705C160.626 72.0954 159.677 72.4119 158.66 72.4465C156.905 72.4465 155.68 71.4971 155.503 69.7674C155.4 68.6749 155.4 67.1575 155.503 66.065C155.607 65.2197 156.029 64.8295 156.486 64.8295C156.909 64.8295 157.081 65.1807 157.012 66.0997C156.978 67.0882 156.801 68.6012 156.978 69.5896C157.155 70.6127 157.681 70.9639 158.694 70.9639L158.698 70.9596ZM156.84 61.2659C156.978 60.8757 157.189 60.4899 157.4 60.1387C157.504 60.0304 157.784 59.961 157.927 60.0304C158.103 60.0997 158.345 60.3468 158.345 60.4899C158.345 60.9148 158.241 61.3353 158.065 61.7255C157.888 62.1156 157.607 62.4668 157.116 62.4321C156.728 62.0809 156.659 61.6908 156.836 61.2702L156.84 61.2659Z" fill="white"/>
    <path
        d="M171.108 68.6705C170.69 70.2226 169.353 72.724 167.499 72.724C166.693 72.724 166.024 72.1951 165.744 71.2413C165.641 70.9596 165.567 70.6084 165.567 70.2919C165.602 68.4928 166.197 66.9061 167.391 65.5665L167.495 65.4624C167.844 65.1807 168.124 65.0029 168.405 65.0029C168.543 65.0029 168.685 65.0723 168.788 65.1416C169.103 65.3887 169.069 65.8136 168.543 66.4119C167.805 67.2572 167.314 68.211 167.107 69.3035C166.969 69.9711 166.861 70.6431 167.456 71.276C167.736 71.1373 168.086 71.0289 168.297 70.8165C169.246 69.9018 169.772 68.7356 169.841 67.3613C169.875 67.0101 169.806 66.62 169.841 66.2341C169.875 65.5665 170.19 65.2847 170.893 65.3887C171.173 65.4581 171.488 65.4928 171.699 65.6705C172.643 66.3078 173.98 66.5506 175.347 66.5506C177.171 66.5506 179.029 66.1257 180.116 65.4581C180.362 65.3194 180.784 65.1069 181.134 65.1069C181.31 65.1069 181.522 65.1763 181.625 65.3887C181.94 65.9176 181.31 66.3425 180.922 66.5506C179.344 67.4653 177.382 67.8902 175.489 67.8902C174.088 67.8902 172.682 67.6778 171.458 67.2572C171.32 67.7861 171.212 68.2457 171.108 68.6662V68.6705Z" fill="white"/>
    <path
        d="M183.307 67.8208C184.148 66.763 185.903 65.0723 187.339 65.0723C188.214 65.0723 188.882 65.7096 189.232 66.9755C189.443 67.6431 189.546 68.3844 189.758 69.0564C190.003 69.8324 190.353 70.1835 190.948 70.1835C191.159 70.1835 191.37 70.1489 191.612 70.0795C192.241 69.9017 192.841 69.5853 193.436 69.3035C195.083 68.4234 196.523 67.2226 197.994 66.0607C198.343 65.8136 198.696 65.5318 199.08 65.3541C199.222 65.25 199.572 65.3194 199.71 65.4581C199.817 65.5968 199.817 65.9176 199.71 66.0911C199.572 66.4075 199.326 66.6546 199.08 66.8671C197.153 68.6662 194.242 70.9552 191.612 71.5535C190.21 71.87 189.016 71.237 188.524 69.8974C188.244 69.1908 188.106 68.4148 187.929 67.6778C187.753 66.9017 187.511 66.5506 187.123 66.5506C186.386 66.5506 184.738 68.276 184.281 68.8049C183.686 69.4379 183.195 70.1445 182.6 70.7775C182.319 71.0939 181.69 71.6922 181.233 71.6922C180.918 71.6922 180.638 71.4451 180.564 71.0246C180.564 70.8859 180.53 70.7428 180.53 70.565C180.53 69.0867 180.53 67.6041 180.564 66.1214C180.564 65.5578 180.707 64.7818 181.336 64.6041C181.651 64.5347 181.828 64.8512 181.897 65.1676C181.966 65.5882 181.931 66.013 181.966 66.4379C182 67.2486 181.931 68.0593 182.104 68.9393C182.699 68.6575 182.979 68.198 183.294 67.8122L183.307 67.8208Z" fill="white"/>
    <path
        d="M199.296 68.8786C199.119 68.3844 198.912 67.8902 198.77 67.396C198.42 66.1257 198.981 64.8252 200.033 64.2963C200.313 64.1575 200.628 64.0838 200.908 64.0838C201.749 64.0838 202.452 64.7515 202.418 65.7746C202.418 65.9523 202.349 66.1604 202.28 66.3382C202.172 66.5853 201.93 66.6893 201.719 66.6893C201.542 66.6893 201.37 66.62 201.228 66.4422C201.051 66.2298 200.947 65.948 200.839 65.7009C200.382 65.7356 200.21 66.0174 200.175 66.3685C200.141 66.6503 200.175 66.9321 200.244 67.2139C200.559 68.1676 200.908 69.1171 201.228 70.0708C201.197 71.5275 200.632 71.87 200.141 72.1517C199.861 72.3295 199.58 72.3989 199.266 72.3989C198.705 72.3989 198.213 72.0824 197.899 71.5535C197.653 71.0939 197.722 70.461 198.459 70.4263C198.774 70.4263 199.123 70.357 199.404 70.3223C199.684 69.7934 199.473 69.3338 199.3 68.8786H199.296Z" fill="white"/>
    <path
        d="M21.3486 38.4971H21.2926C21.0727 38.8873 20.9606 39.6069 20.8528 40.3266C20.7967 41.0463 20.7967 41.8786 20.745 42.711C20.6329 44.3194 20.413 45.5419 19.6411 45.5419C19.3651 45.5419 19.0892 45.3208 18.9771 44.8743C18.8132 44.2067 18.7571 40.2139 18.7011 35.9437C18.7011 31.7298 18.7571 27.3468 18.7571 25.9595C18.7571 24.5723 18.7011 21.0217 18.8132 17.5838C18.8693 14.0332 18.9771 10.8165 19.3091 10.0405C19.4729 9.54191 19.861 9.37284 20.193 9.37284C20.5251 9.37284 21.1331 9.65029 21.2969 10.1488C21.409 10.591 21.4608 12.5896 21.4608 14.8093V22.4653H21.5729C21.7928 22.578 21.961 22.6301 22.1809 22.6301C26.3721 22.5173 36.031 17.9697 39.6703 14.6402C40.8302 13.5867 41.9341 12.1994 41.9341 10.5347C41.9341 9.31214 41.3821 8.42775 40.7742 7.76012C37.0227 3.71098 27.532 2.21098 18.5933 2.21098C12.3582 2.21098 6.39899 2.93064 2.70362 3.9841C2.37159 4.09682 1.54369 4.37428 0.883957 4.37428C0.388079 4.37428 0 4.20954 0 3.65463C0 3.09971 0.827902 2.5448 1.26772 2.3237C6.01091 0.277457 12.466 0 17.3773 0C23.9445 0 36.8546 0.333815 42.7577 6.21243C43.5856 7.10116 44.6894 8.48844 44.6894 10.539C44.6894 13.7558 42.1497 16.4176 39.114 18.4162C36.1345 20.3584 32.8228 21.633 31.5551 22.2442L30.8954 22.5217L31.5551 22.6908C32.5469 22.9119 35.2505 23.3541 37.6781 24.4119C40.1618 25.4653 42.2575 27.1301 42.2575 29.6272C42.2575 30.737 41.7616 31.5694 41.3175 32.1806C36.7942 38.3931 28.9593 38.3931 22.0601 38.3931C21.8402 38.3931 21.6203 38.4494 21.3443 38.4494V38.5058L21.3486 38.4971ZM21.5125 36.2211H21.6203C25.7038 36.1647 35.6343 36.4422 39.1097 31.1185C39.8816 30.1214 39.8255 29.0116 38.8898 28.0665C36.2983 25.461 29.1232 24.3512 26.0875 24.6806C24.6516 24.8497 22.7759 24.8497 21.616 25.4567L21.5599 25.513V25.6257C21.284 27.4552 21.284 29.5101 21.284 31.2832C21.284 32.6705 21.284 34.6691 21.5039 36.052V36.2168L21.5125 36.2211Z" fill="white"/>
    <path
        d="M50.9806 29.8439C51.3687 29.1806 51.6447 28.513 52.0284 27.9017C52.7442 26.8483 53.4083 25.7384 54.2362 24.7413C54.8442 24.0217 55.616 23.5752 56.4957 23.5752C56.8837 23.5752 57.3236 23.6879 57.7116 23.8526C60.3031 25.0708 62.7351 26.1806 65.7664 26.1806C66.7064 26.1806 67.6982 26.0679 68.746 25.8468C70.1819 25.2919 70.8416 27.1778 68.9659 27.6243C67.5861 27.9581 66.3184 28.1228 65.2145 28.1228C60.3592 28.1228 57.4357 25.6821 56.5517 25.9032C55.56 26.1243 54.6199 27.7327 54.068 28.8425C53.0763 30.5636 52.2483 32.3367 51.3644 34.0578C51.1445 34.5564 50.9246 35.0549 50.5925 35.4451C50.3166 35.7226 49.8207 36 49.4326 35.9437C48.3848 35.9437 48.2727 34.6127 48.2727 33.8367C48.2727 31.3396 48.2727 28.8425 48.3288 26.3497C48.3288 25.8512 48.4409 25.2963 48.6608 24.8541C48.7729 24.5202 49.1006 24.3555 49.4326 24.3555C50.2605 24.3555 50.4804 25.8512 50.5365 26.5188C50.5925 27.5723 50.5365 28.6257 50.5365 29.6792L50.9763 29.8439H50.9806Z" fill="white"/>
    <path
        d="M73.7738 34.5607C75.0415 34.5043 76.2575 34.0621 77.4131 33.5072C80.7247 31.9552 82.5616 28.7515 85.3773 26.4191C85.9853 25.9769 86.5373 25.474 87.141 25.0882C87.6929 24.698 88.2448 24.8107 88.5768 25.2009C89.1288 25.9769 88.4647 26.6965 87.9689 27.1431C84.6573 30.0824 82.2124 33.7847 78.241 35.6705C76.8051 36.3338 75.3175 36.8367 73.7177 36.8931C70.9581 36.8931 69.0263 35.3931 68.7503 32.6749C68.5865 30.9538 68.5865 28.5694 68.7503 26.8483C68.9142 25.5173 69.5782 24.9061 70.294 24.9061C70.9538 24.9061 71.234 25.461 71.1219 26.9046C71.0659 28.4567 70.7899 30.8454 71.0659 32.3974C71.3418 34.0058 72.1697 34.5607 73.7695 34.5607H73.7738ZM70.8503 19.3049C71.0702 18.6936 71.4022 18.0824 71.7342 17.5318C71.9024 17.3671 72.3422 17.2543 72.5621 17.3671C72.8381 17.4798 73.2219 17.8656 73.2219 18.0867C73.2219 18.75 73.058 19.4176 72.782 20.0289C72.5061 20.6402 72.0663 21.1951 71.2944 21.1387C70.6864 20.5838 70.5786 19.9725 70.8546 19.3093L70.8503 19.3049Z" fill="white"/>
    <path
        d="M95.3424 23.4104C95.6744 23.0202 96.1142 22.8555 96.5583 23.133C96.8343 23.2977 97.1103 23.6879 97.1103 24.0217C97.1663 25.1315 97.1663 26.2977 97.1663 27.4075C97.1103 29.7919 97.0585 32.1243 97.0025 34.4523V36.6156C98.9342 35.5621 108.869 29.1199 111.849 26.0116C113.448 24.2905 114.664 23.6272 115.16 23.9567C116.264 24.7327 114.664 26.2327 114.112 26.896C111.629 29.8353 100.758 36.8887 97.0585 39.4942C96.9464 41.4928 96.7826 43.5997 96.6704 45.6503C96.5583 50.8093 95.2346 59.185 89.4436 60.8497C86.5761 61.461 84.4201 59.961 83.9803 56.909C83.5405 54.2471 83.7604 51.6373 84.9203 49.1402C85.7482 47.3671 86.7399 45.646 88.1198 44.2023C89.7756 42.5939 91.4874 40.9856 93.251 39.4335C94.135 38.6575 94.7387 37.8815 94.6869 36.6026C94.6309 34.1055 94.6869 31.6084 94.6869 28.8902C94.2471 29.224 93.859 29.4451 93.6391 29.7789C92.1515 31.7211 88.2879 36.3815 85.5843 36.3815C84.1484 36.3815 82.9368 35.2717 82.9368 33.6633C82.9368 30.3338 84.1484 27.3945 86.7442 25.2312C87.736 24.3989 88.8399 23.9567 89.9998 23.9567C91.2675 23.9567 92.3153 24.4552 93.3632 25.1792C93.5313 25.2356 93.6391 25.2356 93.9151 25.3439C94.411 24.7327 94.8551 24.0694 95.351 23.4017L95.3424 23.4104ZM86.0716 34.0058C87.8395 33.5636 90.8148 29.9003 91.8108 28.4046C92.4188 27.6286 91.8669 26.6315 90.8191 26.4061C89.4392 26.1286 88.3354 26.5708 87.4514 27.6806C86.2354 29.1806 85.4636 30.841 85.2437 32.7832C85.1876 33.1171 85.2997 33.5029 85.3515 33.8931C85.7913 33.9494 85.9595 34.0058 86.0673 34.0058H86.0716ZM86.4036 51.646C85.9077 53.3671 85.9077 55.0838 86.2397 56.8049C86.4597 58.0231 87.2876 58.7471 88.3354 58.7471C88.7191 58.7471 89.1072 58.6344 89.4953 58.4697C89.8273 58.3049 90.1033 58.0275 90.4353 57.802C91.979 56.5275 92.919 54.8064 93.4149 52.8642C94.2428 49.4263 94.3549 45.9278 94.5748 42.4899C94.6309 42.2688 94.5188 42.0477 94.411 41.6575C90.9916 43.6561 87.3479 48.2038 86.4122 51.6416L86.4036 51.646Z" fill="white"/>
    <path
        d="M132.71 36.8367C130.89 36.8367 129.235 36.0607 127.967 34.4523C127.139 33.3989 126.531 32.1243 125.815 30.9581C125.207 29.9046 124.655 28.8512 123.607 28.2962C121.292 28.409 117.816 32.9567 116.713 34.6778C116.437 35.1763 116.105 35.7312 115.665 36.1214C115.333 36.5636 114.781 36.841 114.229 36.5116C113.897 36.2905 113.621 35.8483 113.513 35.4581C113.401 34.9595 113.457 34.4046 113.457 33.8497C113.845 26.0809 114.229 18.3165 114.617 10.552C114.729 8.50145 114.729 6.44653 114.837 4.39596C114.893 3.61994 115.057 2.78757 115.277 2.01156C115.389 1.7341 115.885 1.45665 116.161 1.45665C116.437 1.51301 116.876 1.84682 116.932 2.12428C117.096 2.79191 117.096 3.4552 117.096 4.12283C116.984 7.39596 116.82 10.6691 116.657 13.8858C116.437 19.487 116.161 25.0361 115.941 30.6373C115.885 30.8584 115.997 31.0275 116.109 31.4697C116.493 31.0275 116.825 30.75 117.101 30.4162C117.985 29.5838 118.756 28.6951 119.64 27.8627C120.632 26.9176 122.068 25.9205 123.504 25.9205C124.444 25.9205 125.216 26.4191 126.095 27.3642C126.867 28.1965 127.419 29.1936 128.027 30.1387C128.579 31.0275 129.019 32.0246 129.683 32.8569C130.567 33.9668 131.503 34.5217 132.663 34.5217C133.215 34.5217 133.823 34.409 134.482 34.1315C138.014 32.8569 141.381 29.4147 144.029 26.8656C145.353 25.0925 147.78 25.8685 145.521 28.3093C142.817 31.2486 137.022 36.8541 132.719 36.8541L132.71 36.8367Z" fill="white"/>
    <path
        d="M149.488 16.0318C152.744 15.9754 155.999 15.9191 159.199 15.9191C164.274 15.8064 169.293 15.8064 174.316 15.7543C174.756 15.7543 175.752 15.8107 175.752 16.4176C175.752 16.5824 175.588 16.8078 175.42 16.9162C175.256 17.0289 174.98 17.0289 174.761 17.0809C172.221 17.1936 169.685 17.3584 167.09 17.4711C161.242 17.6358 155.391 17.8049 149.488 17.9697C148.992 18.026 148.44 18.0824 147.888 18.1387C147.724 18.5289 147.5 18.8584 147.5 19.1922C146.948 23.7962 146.84 28.4003 147.004 33.0043C147.004 33.8931 147.224 34.8338 147.556 35.6662C147.94 36.6113 148.772 36.9408 149.764 36.7197C155.227 35.276 163.256 30.2775 167.176 26.3931C167.892 25.5607 168.556 25.2269 168.995 25.2269C169.823 25.2269 169.935 26.4494 168.443 28.0015C165.52 31.2182 159.035 34.3873 155.335 36.5506C153.791 37.4393 150.868 38.935 149.048 38.935C145.405 38.935 144.689 34.9422 144.689 32.0549C144.745 28.8382 144.853 25.565 144.965 22.3483C145.021 21.0737 145.129 19.7948 145.185 18.3555C144.301 18.1908 140.549 18.1908 139.889 17.9653C139.557 17.909 139.174 17.5231 139.174 17.2457C139.174 16.9682 139.506 16.526 139.782 16.4697C140.554 16.1922 144.417 16.0275 145.353 15.8584C145.409 15.2471 145.521 14.6922 145.573 14.0853C145.737 12.8107 145.849 11.5318 145.956 10.2572C146.069 9.64596 146.176 9.03468 146.948 8.9263C147.5 8.86994 147.832 9.42486 147.888 10.4783C147.888 11.4754 147.832 12.4769 147.832 13.4176V15.8584C148.604 15.9711 149.048 16.0231 149.488 16.0231V16.0318Z" fill="white"/>
    <path
        d="M168.31 31.2876C168.034 30.5116 167.702 29.7356 167.482 28.9595C166.93 26.961 167.814 24.9104 169.47 24.078C169.91 23.8569 170.41 23.7442 170.85 23.7442C172.173 23.7442 173.277 24.7977 173.221 26.4061C173.221 26.6835 173.113 27.0173 173.001 27.2948C172.837 27.685 172.449 27.8497 172.117 27.8497C171.841 27.8497 171.565 27.737 171.345 27.4595C171.069 27.1257 170.906 26.6835 170.737 26.2934C170.022 26.3497 169.746 26.7919 169.69 27.3468C169.634 27.789 169.69 28.2356 169.802 28.6778C170.298 30.1778 170.85 31.6734 171.345 33.1691C172.229 33.5029 173.001 33.0564 173.773 32.7789C177.417 31.448 180.616 29.341 183.376 26.6228C183.76 26.2327 184.644 25.513 185.308 25.513C185.528 25.513 185.747 25.5694 185.86 25.7905C186.243 26.289 185.916 26.8439 185.472 27.2861C181.72 31.1142 177.417 34.1662 172.066 35.276C171.126 35.4408 170.41 35.9957 169.638 36.4422C169.198 36.7197 168.754 36.8324 168.258 36.8324C167.374 36.8324 166.602 36.3338 166.106 35.5015C165.723 34.7818 165.83 33.7804 166.99 33.7283C167.486 33.7283 168.038 33.6156 168.482 33.5593C168.922 32.7269 168.59 32.0072 168.314 31.2832L168.31 31.2876Z" fill="white"/>
    <path
        d="M189.167 34.5607C190.435 34.5043 191.651 34.0621 192.806 33.5072C196.118 31.9552 198.929 29.7356 201.745 27.4032C202.353 26.961 202.905 26.4581 203.509 26.0723C204.06 25.6821 204.612 25.7948 204.944 26.185C205.496 26.961 204.832 27.6806 204.336 28.1272C201.025 31.0665 197.605 33.7847 193.63 35.6705C192.194 36.3338 190.706 36.8367 189.107 36.8931C186.347 36.8931 184.415 35.3931 184.139 32.6749C183.975 30.9538 183.975 28.5694 184.139 26.8483C184.303 25.5173 184.967 24.9061 185.683 24.9061C186.343 24.9061 186.623 25.461 186.511 26.9046C186.455 28.4567 186.179 30.8454 186.455 32.3974C186.731 34.0058 187.559 34.5607 189.158 34.5607H189.167ZM186.243 19.3049C186.463 18.6936 186.795 18.0824 187.127 17.5318C187.295 17.3671 187.735 17.2543 187.955 17.3671C188.231 17.4798 188.615 17.8656 188.615 18.0867C188.615 18.75 188.451 19.4176 188.175 20.0289C187.899 20.6402 187.459 21.1951 186.687 21.1387C186.079 20.5838 185.972 19.9725 186.248 19.3093L186.243 19.3049Z" fill="white"/>
    <path
        d="M213.34 22.2442C211.796 25.9032 210.028 29.5101 208.097 33.0043C207.381 34.3353 205.613 36.5549 203.905 36.5549C202.362 36.5549 201.258 34.6691 201.258 33.2254C201.146 29.8396 201.973 26.7919 204.401 24.3512C205.285 23.4624 206.277 22.9639 207.381 22.9639C208.321 22.9639 209.256 23.4061 210.084 23.7962C210.304 23.2977 210.636 22.9075 210.856 22.4653C212.788 18.2471 214.112 13.8121 214.776 9.20809C214.832 8.54046 214.94 7.87717 215.16 7.2659C215.323 6.93208 215.768 6.59827 216.151 6.48989C216.759 6.37717 217.199 6.8237 217.255 7.37861C217.367 8.21099 217.367 9.04335 217.311 9.87573C216.652 16.5867 215.875 23.2457 215.272 29.9567C214.832 34.8382 214.612 39.776 214.28 44.6575C214.224 45.0997 214.28 45.6026 214.168 46.0448C214.056 46.8208 213.616 47.2674 213.064 47.211C212.512 47.1546 212.18 46.6561 212.124 45.8237C212.124 45.6026 212.124 45.3815 212.18 45.1604C212.292 38.224 212.84 31.2919 213.616 24.3555C213.672 23.6879 213.672 23.0246 213.728 22.3569L213.34 22.2442ZM207.273 25.2399C206.833 25.2399 206.389 25.5173 205.893 26.1286C203.961 28.2356 203.189 30.7327 203.741 33.6156C203.741 33.7804 204.017 33.8931 204.125 34.0578C205.837 32.8916 207.825 29.6749 208.924 26.4017C208.26 25.6257 207.764 25.2356 207.269 25.2356L207.273 25.2399Z" fill="white"/>
    <path
        d="M226.53 33.3945C227.746 33.8367 229.066 34.0058 230.338 34.0058C237.621 34.0058 245.4 27.9581 247.275 26.4061C247.771 26.0159 248.435 25.2962 249.043 25.2962C249.319 25.2962 249.539 25.3526 249.759 25.6301C250.475 26.4624 249.427 27.5723 248.819 28.0708C245.839 30.6243 237.841 36.1127 230.17 36.1127C229.178 36.1127 228.182 36 227.246 35.8353C223.383 35.0593 221.175 32.6185 222.003 28.7905C222.499 26.237 225.094 22.578 227.962 22.578C228.458 22.578 228.902 22.6908 229.398 22.9119C231.054 23.6315 231.769 25.2962 231.11 27.0173C230.282 29.5708 226.694 30.789 224.379 31.2876C224.711 32.6749 225.538 33.1171 226.53 33.3945ZM228.846 26.4581C229.01 26.1806 229.01 25.7384 228.902 25.461C228.738 24.9624 228.242 24.8497 227.742 24.9624C226.362 25.1835 224.926 26.9046 224.762 28.7905C226.034 28.513 228.294 27.7934 228.846 26.4581Z" fill="white"/>
</svg>