<svg width="47" height="60" viewBox="0 0 47 60" fill="none" xmlns="http://www.w3.org/2000/svg">
<path d="M26.6446 0L26.9939 0.564137C27.0205 0.841728 26.963 1.04321 26.764 1.24021C26.2642 1.72823 23.518 2.03716 22.4831 2.72666C21.1299 3.6266 20.8867 5.28767 20.7805 6.82337C20.3914 12.4424 21.298 18.7553 20.7982 24.3027C20.5594 26.9487 18.8789 28.3412 16.5395 29.1695L13.0503 30.1097C16.4378 30.6291 20.4489 31.5782 20.7982 35.7018C21.267 41.2089 20.4268 47.383 20.7805 52.9572C20.9265 55.2765 21.1476 56.942 23.4472 57.8688C24.2344 58.1867 26.9895 58.4956 26.9895 59.4403L26.649 60H0L0.216694 58.7643C3.13101 57.7211 5.49254 57.5241 5.75788 53.8527L5.74461 5.93687C5.39525 2.38639 2.72416 2.44012 0.0309563 1.31184L0 0H26.6446Z" fill="white"/>
<path d="M23.0221 0H32.3844C33.5783 0 36.6712 1.05846 37.8255 1.63011C48.8929 7.05638 50.7081 23.5004 38.667 28.9267C36.0147 30.1236 34.3802 29.9048 31.8292 28.4801C29.9876 27.4529 29.1461 26.1801 28.9611 24.0185C28.4764 18.3153 29.785 10.7677 28.8685 5.35481C28.7099 4.4214 28.1989 3.35402 27.4323 2.79129C25.9211 1.66584 22.7092 2.25536 23.0221 0Z" fill="white"/>
<path d="M23 60L23.0308 58.9147C25.7492 57.7938 28.2781 58.2448 28.8509 54.6497C29.7453 49.0358 28.4191 41.5909 28.939 35.7582C29.1769 33.1009 31.1639 31.5556 33.5254 30.8053C36.5875 29.8362 38.0017 30.5597 40.6056 32.2121C51.3028 39.005 47.602 54.7792 36.7152 59.0487C36.257 59.2274 33.9704 59.9955 33.6841 59.9955H23V60Z" fill="white"/>
</svg>
