<svg width="100" height="100" viewBox="0 0 100 100" fill="none" xmlns="http://www.w3.org/2000/svg">
<path d="M100 50C100 77.6142 77.6142 100 50 100C22.3858 100 0 77.6142 0 50C0 22.3858 22.3858 0 50 0C77.6142 0 100 22.3858 100 50Z" fill="white"/>
<path d="M53.1093 25L53.3992 25.4701C53.4212 25.7014 53.3735 25.8693 53.2084 26.0335C52.7937 26.4402 50.5149 26.6976 49.6562 27.2722C48.5333 28.0222 48.3315 29.4064 48.2434 30.6861C47.9205 35.3686 48.6728 40.6294 48.2581 45.2522C48.06 47.4573 46.6655 48.6176 44.7243 49.3079L41.829 50.0914C44.6399 50.5242 47.9682 51.3152 48.2581 54.7515C48.6471 59.3407 47.9499 64.4859 48.2434 69.131C48.3645 71.0637 48.548 72.4517 50.4562 73.224C51.1094 73.4889 53.3955 73.7464 53.3955 74.5336L53.113 75H31L31.1798 73.9702C33.5981 73.1009 35.5576 72.9367 35.7778 69.8773L35.7668 29.9474C35.4769 26.9887 33.2605 27.0334 31.0257 26.0932L31 25H53.1093Z" fill="black"/>
<path d="M50.1034 25H57.8721C58.8629 25 61.4293 25.882 62.3871 26.3584C71.5707 30.8803 73.0769 44.5837 63.0854 49.1056C60.8846 50.103 59.5282 49.9206 57.4115 48.7334C55.8833 47.8774 55.1851 46.8167 55.0315 45.0154C54.6294 40.2628 55.7152 33.9731 54.9548 29.4623C54.8231 28.6845 54.3991 27.795 53.7629 27.3261C52.509 26.3882 49.8438 26.8795 50.1034 25Z" fill="black"/>
<path d="M50.0851 75L50.1107 74.0956C52.3664 73.1615 54.4648 73.5374 54.9401 70.5414C55.6822 65.8632 54.5818 59.6591 55.0132 54.7985C55.2106 52.5841 56.8594 51.2964 58.819 50.6711C61.3598 49.8635 62.5334 50.4664 64.694 51.8435C73.5704 57.5042 70.4995 70.6493 61.4658 74.2073C61.0856 74.3561 59.1882 74.9963 58.9506 74.9963H50.0851V75Z" fill="black"/>
</svg>
