<svg width="24" height="19" viewBox="0 0 24 19" fill="none" xmlns="http://www.w3.org/2000/svg">
<path d="M3.9 0H20.1C22.1796 0 23.8791 1.61079 23.9938 3.64037L24 3.85938V15.1406C24 17.1986 22.3723 18.8804 20.3213 18.9939L20.1 19H3.9C1.82036 19 0.120905 17.3892 0.0061738 15.3596L0 15.1406V3.85938C0 1.8014 1.62775 0.119645 3.67869 0.00610921L3.9 0H20.1H3.9ZM22.2 6.38044L12.4192 11.4756C12.1943 11.5928 11.9318 11.6095 11.6961 11.5258L11.5808 11.4756L1.8 6.38162V15.1406C1.8 16.231 2.64853 17.1252 3.72777 17.2119L3.9 17.2188H20.1C21.2018 17.2188 22.1054 16.3791 22.193 15.3111L22.2 15.1406V6.38044ZM20.1 1.78125H3.9C2.79819 1.78125 1.89457 2.62094 1.80696 3.68894L1.8 3.85938V4.36881L12 9.68105L22.2 4.36762V3.85938C22.2 2.76904 21.3515 1.87483 20.2722 1.78814L20.1 1.78125Z" fill="white"/>
</svg>
