<svg width="51" height="30" viewBox="0 0 51 30" xmlns="http://www.w3.org/2000/svg">
<path fill-rule="evenodd" clip-rule="evenodd" d="M15.0912 0.310879C15.7129 0.932643 15.7129 1.5544 15.0912 2.17616L4.67667 13.6788L48.9772 13.6788C49.8062 13.6788 50.2207 14.0933 50.2207 14.9223C50.2207 15.7513 49.8062 16.1658 48.9772 16.1658L4.67667 16.1658L15.0912 27.6684C15.7129 28.2902 15.7129 28.9119 15.0912 29.5337C14.4694 30.1554 13.8477 30.1554 13.2259 29.5337C5.03932 20.5181 0.894286 15.9585 0.790658 15.8549C0.583403 15.6477 0.479777 15.3368 0.479778 14.9223C0.479778 14.5078 0.583403 14.1969 0.790658 13.9896L13.2259 0.310878C13.4331 0.103624 13.744 -2.2683e-06 14.1585 -2.23206e-06C14.573 -2.19582e-06 14.8839 0.103624 15.0912 0.310879Z" />
</svg>
