<svg width="51" height="30" viewBox="0 0 51 30" xmlns="http://www.w3.org/2000/svg">
<path fill-rule="evenodd" clip-rule="evenodd" d="M35.8683 29.6891C35.2465 29.0674 35.2465 28.4456 35.8683 27.8238L46.2828 16.3212H1.98229C1.15327 16.3212 0.73877 15.9067 0.73877 15.0777C0.73877 14.2487 1.15327 13.8342 1.98229 13.8342H46.2828L35.8683 2.33161C35.2465 1.70984 35.2465 1.08809 35.8683 0.466324C36.4901 -0.155441 37.1118 -0.155441 37.7336 0.466324C45.9202 9.48191 50.0652 14.0415 50.1688 14.1451C50.3761 14.3523 50.4797 14.6632 50.4797 15.0777C50.4797 15.4922 50.3761 15.8031 50.1688 16.0104L37.7336 29.6891C37.5263 29.8964 37.2155 30 36.8009 30C36.3864 30 36.0756 29.8964 35.8683 29.6891Z" />
</svg>
