<svg width="31" height="30" viewBox="0 0 31 30" xmlns="http://www.w3.org/2000/svg">
<path fill-rule="evenodd" clip-rule="evenodd" d="M15.8655 0C17.9358 0 19.884 0.390621 21.7102 1.17188C23.5364 1.95313 25.1282 3.02245 26.4856 4.37988C27.843 5.73731 28.9123 7.32909 29.6936 9.15527C30.4749 10.9815 30.8655 12.9297 30.8655 15C30.8655 17.0703 30.4749 19.0185 29.6936 20.8447C28.9123 22.6709 27.843 24.2627 26.4856 25.6201C25.1282 26.9775 23.5364 28.0469 21.7102 28.8281C19.884 29.6094 17.9358 30 15.8655 30C13.7952 30 11.8469 29.6094 10.0208 28.8281C8.19457 28.0469 6.60279 26.9775 5.24536 25.6201C3.88793 24.2627 2.81861 22.6709 2.03735 20.8447C1.2561 19.0185 0.865479 17.0703 0.865479 15C0.865479 12.9297 1.2561 10.9815 2.03735 9.15527C2.81861 7.32909 3.88793 5.73731 5.24536 4.37988C6.60279 3.02245 8.19457 1.95313 10.0208 1.17188C11.8469 0.390621 13.7952 0 15.8655 0ZM15.8655 28.2857C17.7041 28.2857 19.4291 27.9352 21.0404 27.2341C22.6517 26.533 24.0554 25.5802 25.2515 24.3755C26.4476 23.1709 27.3966 21.7638 28.0984 20.1543C28.8003 18.5448 29.1512 16.8218 29.1512 14.9852C29.1512 13.1486 28.8003 11.4255 28.0984 9.81605C27.3966 8.20655 26.4476 6.80443 25.2515 5.60965C24.0554 4.41486 22.6517 3.46696 21.0404 2.76589C19.4291 2.06482 17.7041 1.71429 15.8655 1.71429C14.0268 1.71429 12.3019 2.06482 10.6906 2.76589C9.07928 3.46696 7.6756 4.41486 6.47948 5.60965C5.28336 6.80443 4.3344 8.20655 3.63254 9.81605C2.93069 11.4255 2.57976 13.1486 2.57976 14.9852C2.57976 16.8218 2.93069 18.5448 3.63254 20.1543C4.3344 21.7638 5.28336 23.1709 6.47948 24.3755C7.6756 25.5802 9.07928 26.533 10.6906 27.2341C12.3019 27.9352 14.0268 28.2857 15.8655 28.2857ZM22.7934 9.29671C22.9926 9.09891 23.2217 9 23.4807 9C23.7397 9 23.9688 9.09891 24.168 9.29671C24.3473 9.47473 24.4369 9.69725 24.4369 9.96429C24.4369 10.2313 24.3473 10.4538 24.168 10.6319L14.6356 20.156C14.6157 20.1758 14.5957 20.1956 14.5758 20.2154C14.5559 20.2352 14.536 20.2549 14.5161 20.2747C14.3368 20.4725 14.1127 20.5714 13.8437 20.5714C13.5748 20.5714 13.3507 20.4725 13.1714 20.2747L8.42014 15.5868C8.24084 15.4088 8.15119 15.1863 8.15119 14.9192C8.15119 14.6522 8.24084 14.4297 8.42014 14.2516C8.61935 14.0538 8.84844 13.9549 9.10742 13.9549C9.3664 13.9549 9.59549 14.0538 9.79471 14.2516L13.8288 18.2571L22.7934 9.29671Z" />
</svg>
