<svg width="57" height="30" viewBox="0 0 57 30" xmlns="http://www.w3.org/2000/svg">
<path fill-rule="evenodd" clip-rule="evenodd" d="M0.643066 1.8232C0.643066 1.60221 0.689106 1.37201 0.781188 1.1326C0.873269 0.893185 1.01139 0.681401 1.19555 0.497238C1.56388 0.165744 2.00586 0 2.52152 0C3.03718 0 3.47916 0.165744 3.84749 0.497238L28.8199 25.4696L53.4055 0.883978C53.7738 0.515652 54.2158 0.331492 54.7315 0.331492C55.2471 0.331492 55.6891 0.515652 56.0574 0.883978C56.4258 1.2523 56.6099 1.69429 56.6099 2.20994C56.6099 2.7256 56.4258 3.16759 56.0574 3.53591L30.1458 29.4475C29.7775 29.8158 29.3355 30 28.8199 30C28.3042 30 27.8622 29.8158 27.4939 29.4475L1.19555 3.20442C1.01139 3.02026 0.873269 2.80847 0.781188 2.56906C0.689106 2.32965 0.643066 2.08103 0.643066 1.8232Z" />
</svg>
