<svg width="17" height="30" viewBox="0 0 17 30" xmlns="http://www.w3.org/2000/svg">
<path fill-rule="evenodd" clip-rule="evenodd" d="M1.63501 30C1.51655 30 1.39315 29.9753 1.26482 29.926C1.13649 29.8766 1.02297 29.8026 0.92425 29.7038C0.746559 29.5064 0.657715 29.2695 0.657715 28.9931C0.657715 28.7167 0.746559 28.4798 0.92425 28.2823L14.3102 14.8963L1.13155 1.71767C0.934119 1.52023 0.835404 1.28332 0.835404 1.00691C0.835404 0.730501 0.934119 0.493583 1.13155 0.296149C1.32899 0.0987142 1.56591 -1.53261e-06 1.84231 -1.54469e-06C2.11872 -1.55677e-06 2.35564 0.0987141 2.55307 0.296148L16.4425 14.1856C16.6399 14.383 16.7387 14.6199 16.7387 14.8963C16.7387 15.1728 16.6399 15.4097 16.4425 15.6071L2.37539 29.7038C2.27667 29.8026 2.16314 29.8766 2.03481 29.926C1.90648 29.9753 1.77321 30 1.63501 30Z" />
</svg>
