<svg width="17" height="30" viewBox="0 0 17 30" xmlns="http://www.w3.org/2000/svg">
<path fill-rule="evenodd" clip-rule="evenodd" d="M15.6804 1.16541e-08C15.7989 1.02415e-08 15.9223 0.0246789 16.0506 0.0740375C16.1789 0.123396 16.2925 0.197433 16.3912 0.29615C16.5689 0.493584 16.6577 0.730502 16.6577 1.00691C16.6577 1.28332 16.5689 1.52024 16.3912 1.71767L3.0052 15.1037L16.1839 28.2823C16.3813 28.4798 16.48 28.7167 16.48 28.9931C16.48 29.2695 16.3813 29.5064 16.1839 29.7039C15.9864 29.9013 15.7495 30 15.4731 30C15.1967 30 14.9598 29.9013 14.7624 29.7039L0.872917 15.8144C0.675482 15.617 0.576767 15.3801 0.576767 15.1037C0.576767 14.8272 0.675482 14.5903 0.872917 14.3929L14.94 0.29615C15.0388 0.197433 15.1523 0.123396 15.2806 0.0740375C15.4089 0.0246789 15.5422 1.33022e-08 15.6804 1.16541e-08Z" />
</svg>
