<svg width="57" height="30" viewBox="0 0 57 30" xmlns="http://www.w3.org/2000/svg">
<path fill-rule="evenodd" clip-rule="evenodd" d="M56.5769 28.1768C56.5769 28.3978 56.5309 28.628 56.4388 28.8674C56.3467 29.1068 56.2086 29.3186 56.0244 29.5028C55.6561 29.8343 55.2141 30 54.6985 30C54.1828 30 53.7408 29.8343 53.3725 29.5028L28.4001 4.53039L3.81448 29.116C3.44615 29.4843 3.00416 29.6685 2.48851 29.6685C1.97285 29.6685 1.53087 29.4843 1.16254 29.116C0.794216 28.7477 0.610056 28.3057 0.610056 27.7901C0.610056 27.2744 0.794216 26.8324 1.16254 26.4641L27.0741 0.552485C27.4425 0.184159 27.8845 -1.39218e-06 28.4001 -1.3471e-06C28.9158 -1.30202e-06 29.3578 0.184159 29.7261 0.552485L56.0244 26.7956C56.2086 26.9797 56.3467 27.1915 56.4388 27.4309C56.5309 27.6704 56.5769 27.919 56.5769 28.1768Z" />
</svg>
