<svg width="31" height="30" viewBox="0 0 31 30" xmlns="http://www.w3.org/2000/svg">
<path fill-rule="evenodd" clip-rule="evenodd" d="M15.532 27.7778C8.41362 27.7778 2.64307 22.0072 2.64307 14.8889C2.64307 7.77054 8.41362 1.99999 15.532 1.99999C22.6503 1.99999 28.4208 7.77054 28.4208 14.8889C28.4208 22.0072 22.6503 27.7778 15.532 27.7778ZM0.643066 14.8889C0.643066 23.1118 7.30905 29.7778 15.532 29.7778C23.7549 29.7778 30.4208 23.1118 30.4208 14.8889C30.4208 6.66597 23.7549 -8.63964e-06 15.532 -8.28021e-06C7.30905 -7.92077e-06 0.643065 6.66598 0.643066 14.8889ZM19.8996 9.44657L15.9139 13.4323L11.8663 9.38464L10.7776 10.4733L14.8253 14.521L10.9205 18.4257L11.8933 19.3985L15.7981 15.4938L19.9847 19.6804L21.0734 18.5918L16.8867 14.4051L20.8725 10.4194L19.8996 9.44657Z" />
</svg>
