<svg width="15" height="15" viewBox="0 0 15 15" xmlns="http://www.w3.org/2000/svg">
<path fill-rule="evenodd" clip-rule="evenodd" d="M15 7.5C15 8.4961 14.8173 9.43603 14.4518 10.3198C14.0863 11.2036 13.5843 11.98 12.9459 12.6489C12.3075 13.3179 11.5595 13.8599 10.7018 14.2749C9.84405 14.6899 8.92788 14.9268 7.95322 14.9854C7.91423 14.9854 7.87281 14.9878 7.82895 14.9927C7.78509 14.9976 7.74366 15 7.70468 15H7.5C6.46686 15 5.49464 14.8022 4.58333 14.4067C3.67202 14.0112 2.87768 13.4741 2.20029 12.7954C1.5229 12.1167 0.986844 11.3232 0.592105 10.415C0.197366 9.50683 0 8.53516 0 7.5C0 6.46484 0.197366 5.49317 0.592105 4.58496C0.986844 3.67675 1.5229 2.8833 2.20029 2.20459C2.87768 1.52588 3.67202 0.988771 4.58333 0.593262C5.49464 0.197752 6.46686 0 7.5 0H7.70468C7.74366 0 7.78509 0.00244138 7.82895 0.00732422C7.87281 0.0122071 7.91423 0.0146484 7.95322 0.0146484C8.92788 0.0732425 9.84405 0.310057 10.7018 0.725098C11.5595 1.14014 12.3075 1.68213 12.9459 2.35107C13.5843 3.02002 14.0863 3.79638 14.4518 4.68018C14.8173 5.56397 15 6.5039 15 7.5ZM13.6111 9.91699C13.7573 9.5459 13.8694 9.15772 13.9474 8.75244C14.0254 8.34717 14.0643 7.92969 14.0643 7.5C14.0643 7.05078 14.0205 6.61377 13.9328 6.18897C13.845 5.76416 13.7232 5.36133 13.5673 4.98047L13.7427 5.46387C13.7135 5.47363 13.5307 5.52246 13.1945 5.61035C12.8582 5.69824 12.3294 5.78613 11.6082 5.87402C11.6374 6.1377 11.6618 6.40381 11.6813 6.67236C11.7008 6.94092 11.7105 7.2168 11.7105 7.5C11.7105 7.85156 11.6959 8.19824 11.6667 8.54004C11.6374 8.88184 11.6033 9.21387 11.5643 9.53613C12.1296 9.60449 12.578 9.67529 12.9094 9.74854C13.2408 9.82178 13.4747 9.87793 13.6111 9.91699ZM4.18127 7.5C4.18127 7.8418 4.19589 8.17383 4.22513 8.49609C4.25437 8.81836 4.29336 9.13574 4.34209 9.44824C4.72221 9.41895 5.134 9.39453 5.57748 9.375C6.02095 9.35547 6.50097 9.34082 7.01754 9.33105V6.0791C6.48147 6.0791 5.98684 6.06934 5.53362 6.0498C5.0804 6.03027 4.66373 6.00586 4.28361 5.97656C4.25437 6.2207 4.23001 6.46973 4.21051 6.72363C4.19102 6.97754 4.18127 7.23633 4.18127 7.5ZM7.95325 0.996094V5.15625C8.46007 5.14648 8.92547 5.13184 9.34945 5.1123C9.77343 5.09277 10.1657 5.06836 10.5264 5.03906C10.4094 4.51172 10.2656 4.021 10.0951 3.56689C9.9245 3.11279 9.72713 2.70996 9.50296 2.3584C9.27878 2.00683 9.03512 1.71387 8.77196 1.47949C8.5088 1.24512 8.2359 1.08398 7.95325 0.996094ZM7.01752 1.01074C6.73486 1.09863 6.46196 1.26221 6.1988 1.50146C5.93564 1.74072 5.69441 2.03369 5.47511 2.38037C5.25581 2.72705 5.05844 3.12744 4.883 3.58154C4.70756 4.03565 4.56136 4.52148 4.4444 5.03906C4.80503 5.06836 5.19976 5.09277 5.62862 5.1123C6.05747 5.13184 6.52044 5.14648 7.01752 5.15625V1.01074ZM7.01751 10.2686C6.53993 10.2783 6.09646 10.2905 5.6871 10.3052C5.27774 10.3198 4.89763 10.3418 4.54675 10.3711C4.66371 10.8398 4.80991 11.2769 4.98535 11.6821C5.16079 12.0874 5.35572 12.4463 5.57014 12.7588C5.78457 13.0713 6.01361 13.3325 6.25728 13.5425C6.50094 13.7524 6.75435 13.9014 7.01751 13.9893V10.2686ZM7.95325 14.0039C8.2164 13.9258 8.47225 13.7817 8.72079 13.5718C8.96932 13.3618 9.2008 13.1006 9.41522 12.7881C9.62965 12.4756 9.82214 12.1143 9.99271 11.7041C10.1633 11.2939 10.307 10.8496 10.424 10.3711C10.0829 10.3418 9.70518 10.3198 9.29096 10.3052C8.87673 10.2905 8.43083 10.2783 7.95325 10.2686V14.0039ZM7.95325 9.33105C8.46981 9.34082 8.94983 9.35547 9.39329 9.375C9.83676 9.39453 10.2437 9.41894 10.614 9.44824C10.6628 9.13574 10.7018 8.81836 10.731 8.49609C10.7602 8.17383 10.7749 7.8418 10.7749 7.5C10.7749 7.23633 10.7651 6.97754 10.7456 6.72363C10.7261 6.46973 10.7018 6.21582 10.6725 5.96191C10.3022 6.00098 9.89037 6.03027 9.43715 6.0498C8.98394 6.06934 8.48931 6.0791 7.95325 6.0791V9.33105ZM13.3918 4.59961C13.0507 3.90625 12.5974 3.29102 12.0321 2.75391C11.4668 2.21679 10.8284 1.79199 10.1169 1.47949C10.4191 1.90918 10.6871 2.41943 10.921 3.01025C11.155 3.60108 11.3401 4.24804 11.4766 4.95117C12.0614 4.88281 12.5097 4.81201 12.8216 4.73877C13.1335 4.66553 13.3236 4.61914 13.3918 4.59961ZM5.2632 1.33301C4.85384 1.47949 4.46885 1.6626 4.10823 1.88232C3.7476 2.10205 3.41135 2.35351 3.09945 2.63672C2.78756 2.91992 2.50247 3.22998 2.24419 3.56689C1.9859 3.90381 1.76417 4.26269 1.57898 4.64355C1.70569 4.68262 1.92986 4.73144 2.2515 4.79004C2.57314 4.84863 3.00198 4.90723 3.53805 4.96582C3.70374 4.21386 3.93766 3.53028 4.23981 2.91504C4.54195 2.2998 4.88308 1.77246 5.2632 1.33301ZM1.24263 5.52246C1.14516 5.83496 1.06962 6.15723 1.01602 6.48926C0.962411 6.82129 0.935608 7.1582 0.935608 7.5C0.935608 7.91992 0.972157 8.32764 1.04526 8.72315C1.11836 9.11866 1.228 9.49707 1.3742 9.8584C1.5204 9.8291 1.76407 9.78272 2.1052 9.71924C2.44633 9.65576 2.8898 9.59473 3.43561 9.53613C3.37713 9.21387 3.33327 8.88184 3.30403 8.54004C3.27479 8.19824 3.26017 7.85156 3.26017 7.5C3.26017 7.22656 3.26748 6.95313 3.2821 6.67969C3.29672 6.40625 3.32352 6.14258 3.36251 5.88867C2.72898 5.82031 2.23922 5.74951 1.89321 5.67627C1.5472 5.60303 1.33035 5.55176 1.24263 5.52246ZM1.78363 10.7227C1.97856 11.0645 2.2003 11.3843 2.44884 11.6821C2.69738 11.98 2.96784 12.2534 3.26024 12.5024C3.55264 12.7515 3.86697 12.9761 4.20323 13.1763C4.53949 13.3765 4.8928 13.54 5.26317 13.667C4.91229 13.2764 4.59797 12.8076 4.32019 12.2607C4.04241 11.7139 3.8158 11.1084 3.64036 10.4443C3.18227 10.4932 2.80215 10.5444 2.50001 10.5981C2.19786 10.6519 1.95907 10.6934 1.78363 10.7227ZM10.1169 13.5205C10.7602 13.2373 11.345 12.8613 11.8713 12.3926C12.3976 11.9238 12.8362 11.3818 13.1871 10.7666C13.0409 10.7275 12.8216 10.6812 12.5292 10.6274C12.2368 10.5737 11.8567 10.5176 11.3889 10.459C11.2524 11.0742 11.0745 11.6406 10.8552 12.1582C10.6359 12.6758 10.3898 13.1299 10.1169 13.5205Z"/>
</svg>
