<svg width="15" height="15" viewBox="0 0 15 15" xmlns="http://www.w3.org/2000/svg">
<path d="M7.63193 3.9114C5.64554 3.9114 4.04331 5.51363 4.04331 7.50003C4.04331 9.48642 5.64554 11.0886 7.63193 11.0886C9.61832 11.0886 11.2206 9.48642 11.2206 7.50003C11.2206 5.51363 9.61832 3.9114 7.63193 3.9114ZM7.63193 9.8331C6.34827 9.8331 5.29886 8.78681 5.29886 7.50003C5.29886 6.21324 6.34515 5.16695 7.63193 5.16695C8.91871 5.16695 9.96501 6.21324 9.96501 7.50003C9.96501 8.78681 8.91559 9.8331 7.63193 9.8331V9.8331ZM12.2044 3.76461C12.2044 4.22998 11.8296 4.60164 11.3673 4.60164C10.902 4.60164 10.5303 4.22685 10.5303 3.76461C10.5303 3.30237 10.9051 2.92758 11.3673 2.92758C11.8296 2.92758 12.2044 3.30237 12.2044 3.76461ZM14.5812 4.61414C14.5281 3.49289 14.272 2.49969 13.4506 1.6814C12.6323 0.863104 11.6391 0.606997 10.5178 0.550778C9.36222 0.48519 5.89853 0.48519 4.74292 0.550778C3.62479 0.603874 2.6316 0.859981 1.81018 1.67827C0.988765 2.49657 0.735781 3.48976 0.679562 4.61101C0.613974 5.76662 0.613974 9.23031 0.679562 10.3859C0.732658 11.5072 0.988765 12.5004 1.81018 13.3187C2.6316 14.1369 3.62167 14.3931 4.74292 14.4493C5.89853 14.5149 9.36222 14.5149 10.5178 14.4493C11.6391 14.3962 12.6323 14.1401 13.4506 13.3187C14.2689 12.5004 14.525 11.5072 14.5812 10.3859C14.6468 9.23031 14.6468 5.76974 14.5812 4.61414V4.61414ZM13.0883 11.6258C12.8446 12.238 12.373 12.7096 11.7578 12.9564C10.8364 13.3218 8.65011 13.2374 7.63193 13.2374C6.61375 13.2374 4.42435 13.3187 3.50611 12.9564C2.89395 12.7127 2.42234 12.2411 2.1756 11.6258C1.81018 10.7045 1.89451 8.51821 1.89451 7.50003C1.89451 6.48184 1.8133 4.29244 2.1756 3.3742C2.41922 2.76204 2.89083 2.29043 3.50611 2.04369C4.42747 1.67827 6.61375 1.7626 7.63193 1.7626C8.65011 1.7626 10.8395 1.6814 11.7578 2.04369C12.3699 2.28731 12.8415 2.75892 13.0883 3.3742C13.4537 4.29556 13.3694 6.48184 13.3694 7.50003C13.3694 8.51821 13.4537 10.7076 13.0883 11.6258Z"/>
</svg>
