<svg width="15" height="15" viewBox="0 0 15 15" xmlns="http://www.w3.org/2000/svg">
<path fill-rule="evenodd" clip-rule="evenodd" d="M3.3699 5.06191V14.4631H0.239325V5.06191H3.3699ZM3.56913 2.15901C3.57545 2.6207 3.41576 3.00648 3.09005 3.31638C2.76434 3.62628 2.33587 3.78122 1.80462 3.78122H1.78564C1.26704 3.78122 0.849634 3.62628 0.533412 3.31638C0.217191 3.00648 0.059082 2.6207 0.059082 2.15901C0.059082 1.69101 0.221934 1.30364 0.547642 0.996905C0.873351 0.690169 1.29866 0.536804 1.82359 0.536804C2.34852 0.536804 2.76909 0.690169 3.08531 0.996905C3.40153 1.30364 3.5628 1.69101 3.56913 2.15901ZM8.21757 6.39787C8.33804 6.20799 8.46137 6.04095 8.58755 5.89675C8.72036 5.74496 8.89903 5.58053 9.12354 5.40344C9.34806 5.22636 9.62317 5.0888 9.94888 4.99077C10.2746 4.89275 10.6367 4.84373 11.0351 4.84373C12.1166 4.84373 12.9862 5.20264 13.6439 5.92046C14.3017 6.63829 14.6305 7.68971 14.6305 9.07476V14.4632H11.5094V9.43525C11.5094 8.77118 11.3814 8.25101 11.1252 7.8747C10.8691 7.4984 10.4691 7.31025 9.92516 7.31025C9.52672 7.31025 9.19311 7.41935 8.92432 7.63754C8.65554 7.85573 8.45474 8.1261 8.32193 8.44864C8.25236 8.63838 8.21757 8.89451 8.21757 9.21706V14.4632H5.09648C5.10913 11.9397 5.11545 9.89378 5.11545 8.32532C5.11545 6.75686 5.11229 5.82085 5.10597 5.51728L5.09648 5.06192H8.21757V6.39787Z"/>
</svg>
