<svg width="37" height="30" viewBox="0 0 37 30" xmlns="http://www.w3.org/2000/svg">
<path fill-rule="evenodd" clip-rule="evenodd" d="M31.5631 30H5.25447C2.55214 30 0.361084 27.8108 0.361084 25.1103V4.88965C0.361084 2.18924 2.55214 0 5.25447 0H31.5631C34.2655 0 36.4565 2.18924 36.4565 4.88965V25.1103C36.4565 27.8108 34.2655 30 31.5631 30ZM31.563 28.3089C33.3311 28.3089 34.7646 26.8767 34.7646 25.1103V6.36784L18.409 15.9808L2.05275 6.36746V25.1103C2.05275 26.8767 3.48622 28.3089 5.25433 28.3089H31.563ZM2.08623 4.42542C2.3113 2.87901 3.64403 1.69099 5.25433 1.69099H31.563C33.1734 1.69099 34.5062 2.87919 34.7311 4.42578L18.409 14.0191L2.08623 4.42542Z" />
</svg>
