<svg width="31" height="30" viewBox="0 0 31 30" xmlns="http://www.w3.org/2000/svg">
<path fill-rule="evenodd" clip-rule="evenodd" d="M2.86548 14.8889C2.86548 7.77055 8.63603 2 15.7544 2C22.8727 2 28.6433 7.77055 28.6433 14.8889C28.6433 22.0072 22.8727 27.7778 15.7544 27.7778C8.63603 27.7778 2.86548 22.0072 2.86548 14.8889ZM15.7544 0C7.53146 0 0.865479 6.66598 0.865479 14.8889C0.865479 23.1118 7.53146 29.7778 15.7544 29.7778C23.9773 29.7778 30.6433 23.1118 30.6433 14.8889C30.6433 6.66598 23.9773 0 15.7544 0ZM22.5004 14.5368H16.8637V8.8125H15.3242V14.5368H9.802V15.9125H15.3242V21.8333H16.8637V15.9125H22.5004V14.5368Z"/>
</svg>
