<svg width="30" height="30" viewBox="0 0 30 30" xmlns="http://www.w3.org/2000/svg">
<path fill-rule="evenodd" clip-rule="evenodd" d="M30 28.2031L28.2031 30L19.375 21.1719C17.2396 22.8906 14.7396 23.75 11.875 23.75C8.59373 23.75 5.79428 22.5912 3.47656 20.2734C1.15884 17.9557 0 15.1563 0 11.875C0 8.59373 1.15884 5.79428 3.47656 3.47656C5.79428 1.15884 8.59373 0 11.875 0C15.1563 0 17.9557 1.15884 20.2734 3.47656C22.5912 5.79428 23.75 8.59373 23.75 11.875C23.75 14.6875 22.8906 17.1614 21.1719 19.2969L30 28.2031ZM4.375 19.4531C6.40626 21.4844 8.90624 22.5 11.875 22.5C14.7917 22.5 17.2917 21.4583 19.375 19.375C21.4583 17.2917 22.5 14.7917 22.5 11.875C22.5 8.95832 21.4583 6.45834 19.375 4.375C17.2917 2.29166 14.7917 1.25 11.875 1.25C8.95832 1.25 6.45834 2.29166 4.375 4.375C2.29166 6.45834 1.25 8.95832 1.25 11.875C1.25 14.8438 2.29166 17.3698 4.375 19.4531Z" />
</svg>
