<svg width="31" height="30" viewBox="0 0 31 30" xmlns="http://www.w3.org/2000/svg">
<path fill-rule="evenodd" clip-rule="evenodd" d="M24.4915 11.4984C27.6685 11.4984 30.2452 8.92385 30.2452 5.74919C30.2452 2.57454 27.6685 0 24.4915 0C21.3145 0 18.7378 2.57454 18.7378 5.74919C18.7378 6.42354 18.854 7.07081 19.0676 7.67209L10.7674 11.8188C9.73624 10.271 7.97426 9.25083 5.9744 9.25083C2.79737 9.25083 0.220703 11.8254 0.220703 15C0.220703 18.1747 2.79737 20.7492 5.9744 20.7492C7.97429 20.7492 9.73629 19.729 10.7674 18.1812L19.0677 22.3279C18.8541 22.9292 18.7378 23.5765 18.7378 24.2508C18.7378 27.4255 21.3145 30 24.4915 30C27.6685 30 30.2452 27.4255 30.2452 24.2508C30.2452 21.0762 27.6685 18.5017 24.4915 18.5017C22.4913 18.5017 20.7291 19.5221 19.698 21.0703L11.398 16.9237C11.6117 16.3222 11.7281 15.6747 11.7281 15C11.7281 14.3253 11.6117 13.6778 11.3979 13.0763L19.698 8.92968C20.7291 10.4779 22.4913 11.4984 24.4915 11.4984ZM24.4914 1.40657C26.8913 1.40657 28.8378 3.35147 28.8378 5.74917C28.8378 8.14686 26.8913 10.0918 24.4914 10.0918C22.0914 10.0918 20.1449 8.14686 20.1449 5.74917C20.1449 3.35147 22.0914 1.40657 24.4914 1.40657ZM5.97428 10.6574C8.37422 10.6574 10.3207 12.6023 10.3207 15C10.3207 17.3977 8.37422 19.3426 5.97428 19.3426C3.57434 19.3426 1.62784 17.3977 1.62784 15C1.62784 12.6023 3.57434 10.6574 5.97428 10.6574ZM28.8378 24.2508C28.8378 21.8531 26.8913 19.9082 24.4914 19.9082C22.0914 19.9082 20.1449 21.8531 20.1449 24.2508C20.1449 26.6485 22.0914 28.5934 24.4914 28.5934C26.8913 28.5934 28.8378 26.6485 28.8378 24.2508Z" fill="#23282D"/>
</svg>
