<svg width="16" height="13" viewBox="0 0 16 13" xmlns="http://www.w3.org/2000/svg">
<path fill-rule="evenodd" clip-rule="evenodd" d="M16 1.55729C15.5932 2.18924 15.0509 2.75347 14.3729 3.25V3.65625C14.3729 6.02605 13.5198 8.17577 11.8136 10.1055C10.1073 12.0352 7.84182 13 5.01695 13C3.20903 13 1.53673 12.5035 0 11.5104C0.361584 11.5556 0.621468 11.5781 0.779661 11.5781C2.29379 11.5781 3.64971 11.1042 4.84746 10.1563C4.14689 10.1337 3.51413 9.91363 2.94915 9.49609C2.38418 9.07856 2 8.54254 1.79661 7.88802C2.0678 7.93316 2.27119 7.95573 2.40678 7.95573C2.63277 7.95573 2.92655 7.91059 3.28814 7.82031C2.54237 7.66233 1.91526 7.28429 1.40678 6.6862C0.898303 6.0881 0.644068 5.3941 0.644068 4.60417V4.57031C1.14125 4.84115 1.63842 4.97656 2.13559 4.97656C1.16384 4.34462 0.677966 3.43056 0.677966 2.23438C0.677966 1.67014 0.824857 1.12847 1.11864 0.609375C2.85877 2.75348 5.10733 3.89323 7.86441 4.02865C7.81921 3.87066 7.79661 3.6224 7.79661 3.28385C7.79661 2.3585 8.11299 1.57986 8.74576 0.947917C9.37853 0.315969 10.1582 0 11.0847 0C12.0113 0 12.8023 0.349823 13.4576 1.04948C14.1356 0.936631 14.8362 0.665801 15.5593 0.236979C15.3333 1.02691 14.8475 1.63628 14.1017 2.0651C14.8023 1.9974 15.435 1.82813 16 1.55729Z" fill="#282828"/>
</svg>
