<svg width="18" height="15" viewBox="0 0 18 15" xmlns="http://www.w3.org/2000/svg">
<path fill-rule="evenodd" clip-rule="evenodd" d="M0 5.35714C0 2.39893 2.87786 0 6.42857 0C9.56571 0 12.1746 1.87393 12.7404 4.35107C12.4275 4.3125 12.1104 4.28571 11.7857 4.28571C8.24036 4.28571 5.35714 6.68893 5.35714 9.64286C5.35714 9.98678 5.4 10.3221 5.475 10.6489C4.92536 10.5814 4.41107 10.4368 3.91607 10.2611L1.60714 11.25L2.45464 9.555C0.962143 8.57571 0 7.06286 0 5.35714ZM3.48214 3.21429C3.48214 3.65786 3.84214 4.01786 4.28571 4.01786C4.72929 4.01786 5.08929 3.65786 5.08929 3.21429C5.08929 2.77071 4.72929 2.41071 4.28571 2.41071C3.84214 2.41071 3.48214 2.77071 3.48214 3.21429ZM7.76786 3.21429C7.76786 3.65786 8.12786 4.01786 8.57143 4.01786C9.015 4.01786 9.375 3.65786 9.375 3.21429C9.375 2.77071 9.015 2.41071 8.57143 2.41071C8.12786 2.41071 7.76786 2.77071 7.76786 3.21429ZM11.7857 5.35714C14.7439 5.35714 17.1429 7.27607 17.1429 9.64286C17.1429 11.0132 16.3243 12.2196 15.0729 13.0039L16.0714 15L13.1839 13.7625C12.735 13.86 12.2721 13.9286 11.7857 13.9286C8.8275 13.9286 6.42857 12.0096 6.42857 9.64286C6.42857 7.27607 8.8275 5.35714 11.7857 5.35714ZM9.375 8.57143C9.375 9.015 9.735 9.375 10.1786 9.375C10.6221 9.375 10.9821 9.015 10.9821 8.57143C10.9821 8.12786 10.6221 7.76786 10.1786 7.76786C9.735 7.76786 9.375 8.12786 9.375 8.57143ZM12.5893 8.57143C12.5893 9.015 12.9493 9.375 13.3929 9.375C13.8364 9.375 14.1964 9.015 14.1964 8.57143C14.1964 8.12786 13.8364 7.76786 13.3929 7.76786C12.9493 7.76786 12.5893 8.12786 12.5893 8.57143Z" fill="#282828"/>
</svg>
