<svg width="15" height="17" viewBox="0 0 15 17" xmlns="http://www.w3.org/2000/svg">
<path fill-rule="evenodd" clip-rule="evenodd" d="M8.95536 11.8013V13.803C8.95536 14.2267 8.83203 14.4386 8.58538 14.4386C8.43992 14.4386 8.29762 14.369 8.15848 14.2299V11.3744C8.29762 11.2353 8.43992 11.1657 8.58538 11.1657C8.83203 11.1657 8.95536 11.3776 8.95536 11.8013ZM12.1618 11.8108V12.2472H11.308V11.8108C11.308 11.3808 11.4503 11.1657 11.7349 11.1657C12.0195 11.1657 12.1618 11.3808 12.1618 11.8108ZM2.99777 9.74275H4.01283V8.85101H1.05301V9.74275H2.04911V15.1406H2.99777V9.74275ZM5.72991 15.1406H6.57422V10.4542H5.72991V14.0402C5.54018 14.3058 5.35994 14.4386 5.18918 14.4386C5.07534 14.4386 5.00893 14.3722 4.98996 14.2394C4.98363 14.2204 4.98047 14.1097 4.98047 13.9074V10.4542H4.13616V14.1635C4.13616 14.4734 4.16146 14.7042 4.21206 14.856C4.28795 15.09 4.47136 15.207 4.76228 15.207C5.06585 15.207 5.38839 15.0141 5.72991 14.6283V15.1406ZM9.79967 13.7366V11.8677C9.79967 11.4061 9.77121 11.093 9.71429 10.9286C9.60677 10.5744 9.38226 10.3973 9.04074 10.3973C8.72452 10.3973 8.43043 10.5681 8.15848 10.9096V8.85101H7.31418V15.1406H8.15848V14.6853C8.44308 15.0331 8.73717 15.207 9.04074 15.207C9.38226 15.207 9.60677 15.0331 9.71429 14.6853C9.77121 14.5145 9.79967 14.1983 9.79967 13.7366ZM13.0061 13.6417V13.5184H12.1429C12.1429 13.841 12.1365 14.0339 12.1239 14.0971C12.0796 14.3248 11.9531 14.4386 11.7444 14.4386C11.4535 14.4386 11.308 14.2204 11.308 13.784V12.9587H13.0061V11.9816C13.0061 11.482 12.9208 11.1151 12.75 10.8811C12.5033 10.5586 12.1682 10.3973 11.7444 10.3973C11.3144 10.3973 10.976 10.5586 10.7293 10.8811C10.5523 11.1151 10.4637 11.482 10.4637 11.9816V13.6228C10.4637 14.1224 10.5554 14.4892 10.7388 14.7232C10.9855 15.0458 11.327 15.207 11.7634 15.207C12.2187 15.207 12.5603 15.0394 12.7879 14.7042C12.9018 14.5335 12.9682 14.3627 12.9872 14.192C12.9998 14.1351 13.0061 13.9516 13.0061 13.6417ZM7.23828 4.98046V2.98827C7.23828 2.55189 7.1023 2.3337 6.83035 2.3337C6.5584 2.3337 6.42243 2.55189 6.42243 2.98827V4.98046C6.42243 5.42317 6.5584 5.64452 6.83035 5.64452C7.1023 5.64452 7.23828 5.42317 7.23828 4.98046ZM14.0592 12.1049C14.0592 13.5848 13.9769 14.6916 13.8125 15.4252C13.724 15.7984 13.5406 16.1114 13.2623 16.3644C12.984 16.6174 12.6615 16.7628 12.2946 16.8008C11.1309 16.9336 9.37594 17 7.02958 17C4.68321 17 2.92821 16.9336 1.76451 16.8008C1.39769 16.7628 1.07357 16.6174 0.792132 16.3644C0.510694 16.1114 0.328869 15.7984 0.246652 15.4252C0.0822164 14.7169 0 13.6101 0 12.1049C0 10.625 0.0822164 9.51824 0.246652 8.7846C0.335194 8.41146 0.5186 8.09841 0.796875 7.84543C1.07515 7.59245 1.40085 7.44383 1.774 7.39956C2.93137 7.27307 4.68321 7.20983 7.02958 7.20983C9.37594 7.20983 11.1309 7.27307 12.2946 7.39956C12.6615 7.44383 12.9856 7.59245 13.267 7.84543C13.5485 8.09841 13.7303 8.41146 13.8125 8.7846C13.9769 9.49294 14.0592 10.5997 14.0592 12.1049ZM4.59152 0H5.55915L4.41127 3.78516V6.35603H3.46261V3.78516C3.37407 3.31715 3.18118 2.64677 2.88393 1.774C2.64993 1.12258 2.44438 0.531253 2.2673 0H3.27288L3.94643 2.49498L4.59152 0ZM8.10156 3.15905V4.8192C8.10156 5.33148 8.01302 5.70462 7.83594 5.93862C7.59561 6.26117 7.26042 6.42244 6.83036 6.42244C6.40662 6.42244 6.07459 6.26117 5.83426 5.93862C5.65718 5.69829 5.56864 5.32516 5.56864 4.8192V3.15905C5.56864 2.65309 5.65718 2.28312 5.83426 2.04911C6.07459 1.72657 6.40662 1.5653 6.83036 1.5653C7.26042 1.5653 7.59561 1.72657 7.83594 2.04911C8.01302 2.28312 8.10156 2.65309 8.10156 3.15905ZM11.2796 1.6222V6.35602H10.4163V5.83426C10.0811 6.22637 9.75539 6.42243 9.43917 6.42243C9.14825 6.42243 8.96168 6.30543 8.87946 6.07142C8.82886 5.91964 8.80357 5.68247 8.80357 5.35993V1.6222H9.66685V5.10379C9.66685 5.3125 9.67001 5.42317 9.67633 5.43582C9.69531 5.57496 9.76171 5.64453 9.87555 5.64453C10.0463 5.64453 10.2266 5.50855 10.4163 5.2366V1.6222H11.2796Z" fill="#282828"/>
</svg>
