<svg width="31" height="69" viewBox="0 0 31 69" fill="none" xmlns="http://www.w3.org/2000/svg">
<path d="M30.5919 0L30.993 0.639764C31.0235 0.954569 30.9575 1.18306 30.729 1.40647C30.1552 1.95991 27.0021 2.31026 25.814 3.09219C24.2603 4.11277 23.981 5.99652 23.8591 7.7381C23.4123 14.1104 24.4532 21.2696 23.8795 27.5606C23.6053 30.5614 21.6758 32.1405 18.9898 33.0799L14.9837 34.1461C18.873 34.7351 23.4783 35.8116 23.8795 40.4879C24.4177 46.7333 23.4529 53.7351 23.8591 60.0566C24.0267 62.6867 24.2806 64.5756 26.9209 65.6266C27.8247 65.9871 30.9879 66.3375 30.9879 67.4088L30.597 68.0435H0L0.248797 66.6421C3.59487 65.4591 6.30625 65.2356 6.6109 61.0721L6.59566 6.73276C6.19454 2.7063 3.12774 2.76723 0.0355425 1.48771L0 0H30.5919Z" fill="white"/>
</svg>
