<svg width="24" height="60" viewBox="0 0 24 60" fill="none" xmlns="http://www.w3.org/2000/svg">
<path d="M0.0220552 0H9.38437C10.5783 0 13.6712 1.05846 14.8255 1.63011C25.8929 7.05638 27.7081 23.5004 15.667 28.9267C13.0147 30.1236 11.3802 29.9048 8.82924 28.4801C6.98762 27.4529 6.14611 26.1801 5.96107 24.0185C5.47643 18.3153 6.78495 10.7677 5.86855 5.35481C5.70994 4.4214 5.19887 3.35402 4.43226 2.79129C2.92107 1.66584 -0.290756 2.25536 0.0220552 0Z" fill="white"/>
<path d="M0 60L0.0308406 58.9147C2.74922 57.7938 5.27814 58.2448 5.8509 54.6497C6.74527 49.0358 5.41913 41.5909 5.93901 35.7582C6.17693 33.1009 8.16394 31.5556 10.5254 30.8053C13.5875 29.8362 15.0017 30.5597 17.6056 32.2121C28.3028 39.005 24.602 54.7792 13.7152 59.0487C13.257 59.2274 10.9704 59.9955 10.6841 59.9955H0V60Z" fill="white"/>
</svg>
