<svg width="500" height="500" viewBox="0 0 500 500" fill="none" xmlns="http://www.w3.org/2000/svg">
<rect width="500" height="500" rx="250" fill="black"/>
<path d="M259.8 161L260.833 162.674C260.912 163.497 260.742 164.095 260.153 164.679C258.675 166.127 250.553 167.044 247.493 169.089C243.491 171.759 242.771 176.687 242.457 181.243C241.306 197.912 243.988 216.641 242.51 233.098C241.803 240.948 236.833 245.079 229.915 247.536L219.596 250.325C229.614 251.866 241.476 254.682 242.51 266.915C243.896 283.253 241.411 301.57 242.457 318.106C242.889 324.987 243.543 329.928 250.344 332.677C252.672 333.621 260.82 334.537 260.82 337.34L259.813 339H181L181.641 335.334C190.26 332.239 197.244 331.655 198.029 320.763L197.989 178.613C196.956 168.08 189.057 168.239 181.092 164.892L181 161H259.8Z" fill="white"/>
<path d="M249.087 161H276.775C280.306 161 289.453 164.14 292.867 165.836C325.598 181.934 330.966 230.718 295.356 246.816C287.512 250.367 282.678 249.717 275.133 245.491C269.687 242.444 267.198 238.668 266.651 232.255C265.218 215.335 269.087 192.944 266.377 176.886C265.908 174.117 264.397 170.95 262.129 169.281C257.66 165.942 248.161 167.691 249.087 161Z" fill="white"/>
<path d="M249.021 339L249.112 335.78C257.152 332.455 264.631 333.793 266.325 323.127C268.97 306.473 265.048 284.386 266.586 267.083C267.289 259.199 273.166 254.615 280.15 252.389C289.206 249.514 293.388 251.66 301.089 256.563C332.725 276.715 321.78 323.512 289.583 336.178C288.228 336.708 281.466 338.987 280.619 338.987H249.021V339Z" fill="white"/>
</svg>
