<?xml version="1.0" encoding="utf-8"?><svg xmlns="http://www.w3.org/2000/svg"
	xmlns:xlink="http://www.w3.org/1999/xlink">

	<symbol viewBox="0 0 18 19" id="button-arrow" xmlns="http://www.w3.org/2000/svg">
		<path d="M3.6 0V1.9H14.931L0 17.6605L1.269 19L16.2 3.2395V15.2H18V0H3.6Z" />
	</symbol>

	<symbol viewBox="0 0 28 70" id="element-end" xmlns="http://www.w3.org/2000/svg">
		<path
			d="M0.025731 0H10.9484C12.3414 0 15.9497 1.23487 17.2965 1.9018C30.2084 8.23245 32.3261 27.4172 18.2782 33.7478C15.1839 35.1442 13.2769 34.8889 10.3008 33.2268C8.15222 32.0284 7.17046 30.5434 6.95458 28.0216C6.38917 21.3679 7.91578 12.5623 6.84664 6.24728C6.66159 5.15831 6.06534 3.91302 5.17097 3.25651C3.40791 1.94348 -0.339216 2.63126 0.025731 0Z"
			fill="white" />
		<path
			d="M0 70L0.0359807 68.7339C3.20742 67.4261 6.15783 67.9523 6.82605 63.7579C7.86949 57.2084 6.32232 48.5227 6.92885 41.7179C7.20641 38.6177 9.5246 36.8149 12.2797 35.9396C15.8521 34.8089 17.502 35.653 20.5398 37.5808C33.02 45.5059 28.7023 63.909 16.0011 68.8902C15.4665 69.0986 12.7988 69.9948 12.4647 69.9948H0V70Z"
			fill="white" />
	</symbol>

	<symbol viewBox="0 0 31 69" id="element-start" xmlns="http://www.w3.org/2000/svg">
		<path
			d="M30.5919 0L30.993 0.639764C31.0235 0.954569 30.9575 1.18306 30.729 1.40647C30.1552 1.95991 27.0021 2.31026 25.814 3.09219C24.2603 4.11277 23.981 5.99652 23.8591 7.7381C23.4123 14.1104 24.4532 21.2696 23.8795 27.5606C23.6053 30.5614 21.6758 32.1405 18.9898 33.0799L14.9837 34.1461C18.873 34.7351 23.4783 35.8116 23.8795 40.4879C24.4177 46.7333 23.4529 53.7351 23.8591 60.0566C24.0267 62.6867 24.2806 64.5756 26.9209 65.6266C27.8247 65.9871 30.9879 66.3375 30.9879 67.4088L30.597 68.0435H0L0.248797 66.6421C3.59487 65.4591 6.30625 65.2356 6.6109 61.0721L6.59566 6.73276C6.19454 2.7063 3.12774 2.76723 0.0355425 1.48771L0 0H30.5919Z"
			fill="white" />
	</symbol>

	<symbol viewBox="0 0 19 19" id="linkedin" xmlns="http://www.w3.org/2000/svg">
		<path d="M4.43558 6.60617H0.278579V20H4.43558V6.60617Z" fill="white" />
		<path
			d="M10.8682 12.7013V20H6.8533L6.86526 6.60617H10.672L10.6783 8.46876H10.7409C11.0995 7.90294 11.676 7.48306 12.4033 7.04483C13.1302 6.60661 14.0134 6.38744 15.0524 6.38744C16.5444 6.38744 17.744 6.87615 18.6508 7.85279C19.5575 8.82988 19.9999 10.1853 19.9999 12.0841V19.9999H15.9714V12.5771C15.9714 10.8808 14.9015 10.1581 13.4472 10.1581C13.2323 10.1556 12.4962 10.1738 11.8116 10.7157C11.7933 10.7301 11.7754 10.7447 11.7579 10.7594C11.187 11.2368 10.8682 11.9541 10.8682 12.7013Z"
			fill="white" />
		<path
			d="M3.9398 3.96639C4.84109 3.05903 4.84109 1.58789 3.9398 0.680526C3.03852 -0.226842 1.57725 -0.226842 0.675963 0.680526C-0.225321 1.58789 -0.225321 3.05903 0.675963 3.96639C1.57725 4.87376 3.03852 4.87376 3.9398 3.96639Z"
			fill="white" />
	</symbol>

	<symbol viewBox="0 0 19 19" id="instagram" xmlns="http://www.w3.org/2000/svg">
		<path
			d="M13.4582 1.58319C14.5071 1.58632 15.5122 2.0044 16.2539 2.7461C16.9956 3.48781 17.4137 4.49288 17.4168 5.54181V13.4582C17.4137 14.5071 16.9956 15.5122 16.2539 16.2539C15.5122 16.9956 14.5071 17.4137 13.4582 17.4168H5.54181C4.49288 17.4137 3.48781 16.9956 2.7461 16.2539C2.0044 15.5122 1.58632 14.5071 1.58319 13.4582V5.54181C1.58632 4.49288 2.0044 3.48781 2.7461 2.7461C3.48781 2.0044 4.49288 1.58632 5.54181 1.58319H13.4582ZM13.4582 0H5.54181C2.49375 0 0 2.49375 0 5.54181V13.4582C0 16.5062 2.49375 19 5.54181 19H13.4582C16.5062 19 19 16.5062 19 13.4582V5.54181C19 2.49375 16.5062 0 13.4582 0Z"
			fill="white" />
		<path
			d="M14.8214 5.35717C14.5883 5.35717 14.3604 5.28805 14.1666 5.15855C13.9728 5.02904 13.8217 4.84497 13.7325 4.62961C13.6433 4.41425 13.62 4.17728 13.6655 3.94866C13.7109 3.72003 13.8232 3.51003 13.988 3.3452C14.1529 3.18037 14.3629 3.06812 14.5915 3.02265C14.8201 2.97717 15.0571 3.00051 15.2724 3.08972C15.4878 3.17892 15.6719 3.32998 15.8014 3.5238C15.9309 3.71762 16 3.94548 16 4.17859C16.0003 4.33345 15.9701 4.48686 15.911 4.63001C15.8518 4.77315 15.765 4.90321 15.6555 5.01272C15.546 5.12222 15.416 5.20902 15.2728 5.26814C15.1297 5.32725 14.9763 5.35751 14.8214 5.35717ZM9.71435 6.14262C10.336 6.14262 10.9437 6.32695 11.4605 6.67231C11.9774 7.01767 12.3802 7.50855 12.6181 8.08286C12.856 8.65718 12.9183 9.28914 12.797 9.89883C12.6757 10.5085 12.3764 11.0686 11.9368 11.5081C11.4972 11.9477 10.9372 12.247 10.3275 12.3683C9.71783 12.4896 9.08587 12.4273 8.51156 12.1894C7.93724 11.9516 7.44637 11.5487 7.10101 11.0318C6.75565 10.515 6.57131 9.90729 6.57131 9.28565C6.5722 8.45234 6.90363 7.65342 7.49287 7.06417C8.08211 6.47493 8.88103 6.14351 9.71435 6.14262ZM9.71435 4.57131C8.78194 4.57131 7.87047 4.8478 7.0952 5.36582C6.31993 5.88384 5.71568 6.62012 5.35886 7.48155C5.00204 8.34298 4.90868 9.29088 5.09059 10.2054C5.27249 11.1199 5.72149 11.9599 6.3808 12.6192C7.04011 13.2785 7.88013 13.7275 8.79462 13.9094C9.70912 14.0913 10.657 13.998 11.5184 13.6411C12.3799 13.2843 13.1162 12.6801 13.6342 11.9048C14.1522 11.1295 14.4287 10.2181 14.4287 9.28565C14.4287 8.03533 13.932 6.83622 13.0479 5.95211C12.1638 5.068 10.9647 4.57131 9.71435 4.57131Z"
			fill="white" />
	</symbol>

	<symbol viewBox="0 0 100 100" id="logo-small-circle" xmlns="http://www.w3.org/2000/svg">
		<path
			d="M100 50C100 77.6142 77.6142 100 50 100C22.3858 100 0 77.6142 0 50C0 22.3858 22.3858 0 50 0C77.6142 0 100 22.3858 100 50Z"
			fill="white" />
		<path
			d="M53.1093 25L53.3992 25.4701C53.4212 25.7014 53.3735 25.8693 53.2084 26.0335C52.7937 26.4402 50.5149 26.6976 49.6562 27.2722C48.5333 28.0222 48.3315 29.4064 48.2434 30.6861C47.9205 35.3686 48.6728 40.6294 48.2581 45.2522C48.06 47.4573 46.6655 48.6176 44.7243 49.3079L41.829 50.0914C44.6399 50.5242 47.9682 51.3152 48.2581 54.7515C48.6471 59.3407 47.9499 64.4859 48.2434 69.131C48.3645 71.0637 48.548 72.4517 50.4562 73.224C51.1094 73.4889 53.3955 73.7464 53.3955 74.5336L53.113 75H31L31.1798 73.9702C33.5981 73.1009 35.5576 72.9367 35.7778 69.8773L35.7668 29.9474C35.4769 26.9887 33.2605 27.0334 31.0257 26.0932L31 25H53.1093Z"
			fill="black" />
		<path
			d="M50.1034 25H57.8721C58.8629 25 61.4293 25.882 62.3871 26.3584C71.5707 30.8803 73.0769 44.5837 63.0854 49.1056C60.8846 50.103 59.5282 49.9206 57.4115 48.7334C55.8833 47.8774 55.1851 46.8167 55.0315 45.0154C54.6294 40.2628 55.7152 33.9731 54.9548 29.4623C54.8231 28.6845 54.3991 27.795 53.7629 27.3261C52.509 26.3882 49.8438 26.8795 50.1034 25Z"
			fill="black" />
		<path
			d="M50.0851 75L50.1107 74.0956C52.3664 73.1615 54.4648 73.5374 54.9401 70.5414C55.6822 65.8632 54.5818 59.6591 55.0132 54.7985C55.2106 52.5841 56.8594 51.2964 58.819 50.6711C61.3598 49.8635 62.5334 50.4664 64.694 51.8435C73.5704 57.5042 70.4995 70.6493 61.4658 74.2073C61.0856 74.3561 59.1882 74.9963 58.9506 74.9963H50.0851V75Z"
			fill="black" />
	</symbol>

	<symbol viewBox="0 0 47 60" id="logo-small" xmlns="http://www.w3.org/2000/svg">
		<path
			d="M26.6446 0L26.9939 0.564137C27.0205 0.841728 26.963 1.04321 26.764 1.24021C26.2642 1.72823 23.518 2.03716 22.4831 2.72666C21.1299 3.6266 20.8867 5.28767 20.7805 6.82337C20.3914 12.4424 21.298 18.7553 20.7982 24.3027C20.5594 26.9487 18.8789 28.3412 16.5395 29.1695L13.0503 30.1097C16.4378 30.6291 20.4489 31.5782 20.7982 35.7018C21.267 41.2089 20.4268 47.383 20.7805 52.9572C20.9265 55.2765 21.1476 56.942 23.4472 57.8688C24.2344 58.1867 26.9895 58.4956 26.9895 59.4403L26.649 60H0L0.216694 58.7643C3.13101 57.7211 5.49254 57.5241 5.75788 53.8527L5.74461 5.93687C5.39525 2.38639 2.72416 2.44012 0.0309563 1.31184L0 0H26.6446Z"
			fill="white" />
		<path
			d="M23.0221 0H32.3844C33.5783 0 36.6712 1.05846 37.8255 1.63011C48.8929 7.05638 50.7081 23.5004 38.667 28.9267C36.0147 30.1236 34.3802 29.9048 31.8292 28.4801C29.9876 27.4529 29.1461 26.1801 28.9611 24.0185C28.4764 18.3153 29.785 10.7677 28.8685 5.35481C28.7099 4.4214 28.1989 3.35402 27.4323 2.79129C25.9211 1.66584 22.7092 2.25536 23.0221 0Z"
			fill="white" />
		<path
			d="M23 60L23.0308 58.9147C25.7492 57.7938 28.2781 58.2448 28.8509 54.6497C29.7453 49.0358 28.4191 41.5909 28.939 35.7582C29.1769 33.1009 31.1639 31.5556 33.5254 30.8053C36.5875 29.8362 38.0017 30.5597 40.6056 32.2121C51.3028 39.005 47.602 54.7792 36.7152 59.0487C36.257 59.2274 33.9704 59.9955 33.6841 59.9955H23V60Z"
			fill="white" />
	</symbol>

	<symbol viewBox="0 0 162 60" id="logo-group" xmlns="http://www.w3.org/2000/svg">
		<path
			d="M20.3554 0L20.0061 0.564137C19.9795 0.841728 20.037 1.04321 20.236 1.24021C20.7358 1.72823 23.482 2.03716 24.5169 2.72666C25.8701 3.6266 26.1133 5.28767 26.2195 6.82337C26.6086 12.4424 25.702 18.7553 26.2018 24.3027C26.4406 26.9487 28.1211 28.3412 30.4605 29.1695L33.9497 30.1097C30.5622 30.6291 26.5511 31.5782 26.2018 35.7018C25.733 41.2089 26.5732 47.383 26.2195 52.9572C26.0735 55.2765 25.8524 56.942 23.5528 57.8688C22.7656 58.1867 20.0105 58.4956 20.0105 59.4403L20.351 60H47L46.7833 58.7643C43.869 57.7211 41.5075 57.5241 41.2421 53.8527L41.2554 5.93687C41.6048 2.38639 44.2758 2.44012 46.969 1.31184L47 0H20.3554Z"
			fill="white" />
		<path
			d="M23.9779 0H14.6156C13.4217 0 10.3288 1.05846 9.17447 1.63011C-1.89289 7.05638 -3.70808 23.5004 8.33296 28.9267C10.9853 30.1236 12.6198 29.9048 15.1708 28.4801C17.0124 27.4529 17.8539 26.1801 18.0389 24.0185C18.5236 18.3153 17.2151 10.7677 18.1315 5.35481C18.2901 4.4214 18.8011 3.35402 19.5677 2.79129C21.0789 1.66584 24.2908 2.25536 23.9779 0Z"
			fill="white" />
		<path
			d="M24 60L23.9692 58.9147C21.2508 57.7938 18.7219 58.2448 18.1491 54.6497C17.2547 49.0358 18.5809 41.5909 18.061 35.7582C17.8231 33.1009 15.8361 31.5556 13.4746 30.8053C10.4125 29.8362 8.99826 30.5597 6.39444 32.2121C-4.30283 39.005 -0.601963 54.7792 10.2848 59.0487C10.743 59.2274 13.0296 59.9955 13.3159 59.9955H24V60Z"
			fill="white" />
		<path
			d="M117.17 49.2446V54.7455H115.038V41.1993H117.453C118.636 41.1993 119.53 41.2782 120.133 41.4362C120.743 41.5941 121.28 41.8924 121.743 42.3311C122.554 43.0914 122.96 44.0507 122.96 45.2088C122.96 46.4487 122.527 47.4314 121.661 48.1566C120.795 48.8819 119.627 49.2446 118.157 49.2446H117.17ZM117.17 47.3495H117.965C119.923 47.3495 120.902 46.6271 120.902 45.1824C120.902 43.7845 119.892 43.0856 117.874 43.0856H117.17V47.3495Z"
			fill="white" />
		<path
			d="M103.322 41.1993V49.3586C103.322 50.5226 103.52 51.3736 103.917 51.9117C104.508 52.6896 105.34 53.0786 106.414 53.0786C107.493 53.0786 108.328 52.6896 108.92 51.9117C109.316 51.3911 109.515 50.5401 109.515 49.3586V41.1993H111.646V49.9201C111.646 51.3473 111.182 52.5229 110.255 53.447C109.213 54.4765 107.932 54.9912 106.414 54.9912C104.895 54.9912 103.618 54.4765 102.581 53.447C101.654 52.5229 101.191 51.3473 101.191 49.9201V41.1993H103.322Z"
			fill="white" />
		<path
			d="M83.7446 47.911C83.7446 46.0042 84.4733 44.3665 85.9307 42.9979C87.3821 41.6292 89.1261 40.9449 91.1629 40.9449C93.1752 40.9449 94.901 41.635 96.3401 43.0154C97.7854 44.3958 98.508 46.0539 98.508 47.99C98.508 49.9377 97.7823 51.59 96.331 52.947C94.8736 54.3098 93.1143 54.9912 91.0531 54.9912C89.2298 54.9912 87.5924 54.3858 86.1411 53.1751C84.5434 51.8357 83.7446 50.081 83.7446 47.911ZM85.8941 47.9373C85.8941 49.4347 86.4186 50.6659 87.4674 51.6309C88.5102 52.596 89.7146 53.0786 91.0805 53.0786C92.5624 53.0786 93.8125 52.5873 94.8309 51.6046C95.8492 50.6103 96.3584 49.3996 96.3584 47.9724C96.3584 46.5277 95.8553 45.317 94.8492 44.3402C93.8491 43.3576 92.6112 42.8663 91.1354 42.8663C89.6658 42.8663 88.4248 43.3576 87.4126 44.3402C86.4003 45.3111 85.8941 46.5102 85.8941 47.9373Z"
			fill="white" />
		<path
			d="M78.2747 48.9726L82.647 54.7455H80.0401L76.0062 49.2007H75.622V54.7455H73.4907V41.1993H75.9879C77.8539 41.1993 79.2016 41.5356 80.0309 42.2082C80.9456 42.9569 81.403 43.9454 81.403 45.1737C81.403 46.1329 81.1164 46.9576 80.5432 47.6478C79.9699 48.338 79.2138 48.7796 78.2747 48.9726ZM75.622 47.4197H76.2989C78.3174 47.4197 79.3266 46.6798 79.3266 45.2C79.3266 43.8138 78.3448 43.1207 76.3812 43.1207H75.622V47.4197Z"
			fill="white" />
		<path
			d="M64.9671 47.6917H70.803V48.1391C70.803 49.1569 70.678 50.0576 70.428 50.8414C70.184 51.5667 69.7724 52.2451 69.1931 52.8768C67.882 54.2923 66.2142 55 64.1896 55C62.2139 55 60.5216 54.3157 59.113 52.947C57.7043 51.5725 57 49.9231 57 47.9988C57 46.0335 57.7165 44.3666 59.1496 42.9979C60.5826 41.6234 62.3267 40.9361 64.3817 40.9361C65.4855 40.9361 66.516 41.1525 67.4734 41.5854C68.3882 42.0182 69.2876 42.7201 70.1718 43.691L68.6534 45.086C67.4948 43.6062 66.0831 42.8663 64.4183 42.8663C62.9243 42.8663 61.6711 43.3605 60.6588 44.349C59.6466 45.3199 59.1404 46.5365 59.1404 47.9988C59.1404 49.5078 59.7045 50.7507 60.8326 51.7275C61.8876 52.6341 63.031 53.0874 64.2628 53.0874C65.3117 53.0874 66.2538 52.7481 67.0893 52.0697C67.9247 51.3853 68.3912 50.5665 68.4888 49.6131H64.9671V47.6917Z"
			fill="white" />
		<path
			d="M113.749 33.4875H107.703L106.13 36.7775H103.834L110.822 22.3802L117.563 36.7775H115.231L113.749 33.4875ZM112.88 31.5661L110.785 26.96L108.59 31.5661H112.88Z"
			fill="white" />
		<path d="M102.061 23.2313V36.7776H99.9294V23.2313H102.061Z" fill="white" />
		<path
			d="M86.3182 36.7776V23.2313H89.2819C90.7028 23.2313 91.8248 23.3659 92.648 23.6349C93.5323 23.8981 94.3342 24.3456 95.0537 24.9773C96.5112 26.2523 97.2399 27.9281 97.2399 30.0045C97.2399 32.0867 96.4807 33.7712 94.9623 35.058C94.2 35.7014 93.4012 36.1488 92.5657 36.4003C91.7852 36.6518 90.6784 36.7776 89.2453 36.7776H86.3182ZM88.4495 34.8562H89.41C90.3674 34.8562 91.1632 34.7597 91.7974 34.5667C92.4316 34.3619 93.0048 34.0373 93.517 33.5928C94.5659 32.6745 95.0903 31.4784 95.0903 30.0045C95.0903 28.5188 94.572 27.3139 93.5353 26.3898C92.6023 25.5651 91.2272 25.1527 89.41 25.1527H88.4495V34.8562Z"
			fill="white" />
		<path
			d="M83.5157 25.1527H77.8536V28.4077H83.351V30.3291H77.8536V34.8562H83.5157V36.7776H75.7224V23.2313H83.5157V25.1527Z"
			fill="white" />
		<path
			d="M57.2094 36.7777L60.1823 22.2137L65.0302 32.7419L70.052 22.2137L72.7229 36.7777H70.5368L69.1739 28.6008L64.9936 37.4006L60.9323 28.592L59.4139 36.7777H57.2094Z"
			fill="white" />
		<path d="M162 7.18452H156.338V10.4395H161.835V12.3609H156.338V16.888H162V18.8094H154.207V5.26313H162V7.18452Z"
			fill="white" />
		<path
			d="M140.595 18.8094V5.26313H143.559C144.98 5.26313 146.102 5.39766 146.925 5.66671C147.81 5.92991 148.611 6.37736 149.331 7.00905C150.788 8.28413 151.517 9.95986 151.517 12.0362C151.517 14.1185 150.758 15.803 149.24 17.0898C148.477 17.7332 147.678 18.1806 146.843 18.4321C146.062 18.6836 144.956 18.8094 143.523 18.8094H140.595ZM142.727 16.888H143.687C144.645 16.888 145.44 16.7915 146.075 16.5985C146.709 16.3937 147.282 16.0691 147.794 15.6246C148.843 14.7063 149.368 13.5102 149.368 12.0362C149.368 10.5506 148.849 9.34572 147.813 8.42158C146.88 7.59687 145.504 7.18452 143.687 7.18452H142.727V16.888Z"
			fill="white" />
		<path d="M137.202 5.26313V18.8094H135.071V5.26313H137.202Z" fill="white" />
		<path
			d="M132.135 7.2811L130.406 8.26373C130.083 7.72562 129.775 7.37469 129.482 7.21091C129.177 7.02375 128.784 6.93016 128.302 6.93016C127.711 6.93016 127.22 7.09101 126.829 7.4127C126.439 7.72855 126.244 8.12628 126.244 8.6059C126.244 9.26683 126.756 9.79909 127.781 10.2027L129.189 10.7554C130.336 11.1999 131.174 11.7439 131.705 12.3873C132.235 13.0248 132.501 13.8086 132.501 14.7385C132.501 15.9844 132.068 17.0138 131.202 17.8268C130.33 18.6457 129.247 19.0551 127.954 19.0551C126.729 19.0551 125.716 18.7071 124.918 18.0111C124.131 17.315 123.64 16.3353 123.445 15.0719L125.604 14.6157C125.701 15.4112 125.872 15.961 126.116 16.2651C126.555 16.85 127.195 17.1425 128.037 17.1425C128.701 17.1425 129.253 16.929 129.692 16.502C130.131 16.075 130.351 15.534 130.351 14.8789C130.351 14.6157 130.311 14.3759 130.232 14.1595C130.159 13.9372 130.04 13.7354 129.875 13.5541C129.717 13.367 129.509 13.1944 129.253 13.0365C128.997 12.8727 128.692 12.7177 128.339 12.5715L126.976 12.0275C125.043 11.2438 124.076 10.0974 124.076 8.58835C124.076 7.57063 124.482 6.7196 125.293 6.03527C126.104 5.34509 127.113 5 128.32 5C129.949 5 131.22 5.76037 132.135 7.2811Z"
			fill="white" />
		<path d="M119.027 7.18452V18.8094H116.896V7.18452H113.649V5.26313H122.266V7.18452H119.027Z" fill="white" />
		<path
			d="M103.524 10.5623H109.616V5.26313H111.747V18.8094H109.616V12.4837H103.524V18.8094H101.393V5.26313H103.524V10.5623Z"
			fill="white" />
		<path
			d="M92.8644 11.7556H98.7002V12.203C98.7002 13.2207 98.5752 14.1215 98.3252 14.9053C98.0813 15.6305 97.6697 16.309 97.0904 16.9407C95.7793 18.3561 94.1114 19.0639 92.0869 19.0639C90.1111 19.0639 88.4189 18.3795 87.0102 17.0109C85.6016 15.6364 84.8972 13.987 84.8972 12.0626C84.8972 10.0974 85.6138 8.43043 87.0468 7.06177C88.4799 5.68726 90.2239 5 92.279 5C93.3827 5 94.4133 5.21641 95.3707 5.64924C96.2854 6.08206 97.1849 6.78394 98.0691 7.75487L96.5507 9.14985C95.392 7.67006 93.9803 6.93016 92.3156 6.93016C90.8215 6.93016 89.5684 7.4244 88.5561 8.41288C87.5438 9.38381 87.0377 10.6004 87.0377 12.0626C87.0377 13.5717 87.6017 14.8146 88.7299 15.7914C89.7849 16.698 90.9282 17.1513 92.1601 17.1513C93.2089 17.1513 94.1511 16.812 94.9865 16.1335C95.822 15.4492 96.2885 14.6303 96.386 13.677H92.8644V11.7556Z"
			fill="white" />
		<path d="M82.2082 5.26313V18.8094H80.0769V5.26313H82.2082Z" fill="white" />
		<path
			d="M73.5749 13.0364L77.9472 18.8094H75.3403L71.3064 13.2645H70.9222V18.8094H68.7909V5.26313H71.2881C73.1541 5.26313 74.5018 5.59945 75.3311 6.27208C76.2458 7.02075 76.7032 8.00923 76.7032 9.23751C76.7032 10.1967 76.4166 11.0215 75.8434 11.7116C75.2701 12.4018 74.514 12.8434 73.5749 13.0364ZM70.9222 11.4835H71.5991C73.6176 11.4835 74.6268 10.7436 74.6268 9.26383C74.6268 7.87762 73.645 7.18452 71.6814 7.18452H70.9222V11.4835Z"
			fill="white" />
		<path
			d="M57.7022 18.8094V5.26313H59.8243C60.7695 5.26313 61.5226 5.33332 62.0836 5.47369C62.6508 5.61407 63.1295 5.85095 63.5197 6.18434C63.9161 6.52943 64.2302 6.95933 64.4619 7.47404C64.6997 7.9946 64.8186 8.52101 64.8186 9.05327C64.8186 10.0242 64.4314 10.846 63.6569 11.5186C64.407 11.7643 64.9985 12.1942 65.4315 12.8083C65.8705 13.4166 66.0901 14.1243 66.0901 14.9315C66.0901 15.9902 65.6998 16.8851 64.9192 17.6162C64.4497 18.0665 63.9222 18.3795 63.3368 18.5549C62.6965 18.7246 61.8946 18.8094 60.9311 18.8094H57.7022ZM59.8334 11.0799H60.5012C61.2939 11.0799 61.8733 10.9132 62.2391 10.5799C62.6111 10.2406 62.7971 9.74345 62.7971 9.08836C62.7971 8.45082 62.6081 7.96828 62.23 7.64074C61.8519 7.30735 61.3031 7.14065 60.5835 7.14065H59.8334V11.0799ZM59.8334 16.888H61.1506C62.1141 16.888 62.8215 16.7067 63.2728 16.344C63.7484 15.9521 63.9862 15.455 63.9862 14.8525C63.9862 14.2676 63.7576 13.7763 63.3002 13.3786C62.855 12.9867 62.0592 12.7908 60.9128 12.7908H59.8334V16.888Z"
			fill="white" />
	</symbol>

	<symbol viewBox="0 0 250 79" id="logo" xmlns="http://www.w3.org/2000/svg">
		<path
			d="M59.1734 65.4971C59.1044 68.107 59.0354 70.6778 58.9276 73.2876C58.9276 73.5694 58.8931 73.8512 58.8241 74.133C58.7551 74.4494 58.5094 74.6619 58.1946 74.5925C57.9833 74.5578 57.7375 74.3801 57.6685 74.2067C57.5607 73.8165 57.5262 73.4307 57.5607 73.0405C57.5607 70.7471 57.6297 68.4234 57.6685 66.1301C57.703 63.4856 57.703 60.8411 57.772 58.1965C57.772 57.2818 57.8755 56.3627 57.9488 55.4827C57.9833 55.2356 57.9833 54.9538 58.1256 54.776C58.2334 54.5983 58.4749 54.4249 58.6516 54.4249C58.8284 54.4249 59.1087 54.6373 59.1777 54.8107C59.2855 55.2702 59.389 55.7254 59.389 56.2197C59.389 57.3468 59.3545 58.513 59.32 59.6749C59.2855 60.5202 59.1777 61.4003 59.3545 62.3194C59.5658 62.3194 59.7728 62.3887 59.9151 62.3194C61.9503 61.6821 63.9468 61.0838 65.9432 60.3815C67.7672 59.7486 69.9059 58.409 71.0271 56.7876C71.8334 55.6604 71.7644 54.4596 70.8891 53.3324C68.2933 49.8425 60.5101 49.1705 56.6552 49.1705C55.3918 49.1705 54.0939 49.2399 52.8348 49.383C50.4503 49.6648 48.0657 49.9812 45.7157 50.263C45.3319 50.2977 44.9438 50.3671 44.5601 50.3671C44.2798 50.3671 43.9305 50.3324 43.9305 49.9812C43.9305 49.383 45.5432 49.0275 45.9658 48.9581C47.7898 48.6069 49.6482 48.2905 51.4722 48.0434C53.9602 47.6922 56.4525 47.6185 58.9406 47.7269C61.9546 47.8656 64.9385 48.3252 67.7758 49.4523C69.9836 50.3671 72.8597 52.1315 73.0364 54.8107C73.1399 55.9726 72.8596 57.065 72.0878 57.9148C70.2293 59.9957 68.2674 61.37 65.5681 62.1806C63.7786 62.7096 61.9546 63.1691 60.1695 63.6243C59.8892 63.6937 59.6434 63.802 59.2941 63.9061C59.2596 64.4697 59.2252 64.9639 59.1863 65.4928L59.1734 65.4971Z"
			fill="white" />
		<path
			d="M73.5453 67.9639C73.791 67.539 73.9635 67.1185 74.2093 66.7283C74.6664 66.0607 75.0846 65.3541 75.6107 64.7211C75.9988 64.2616 76.486 63.9798 77.0466 63.9798C77.2924 63.9798 77.5727 64.0492 77.8184 64.1575C79.4656 64.9335 81.0093 65.6359 82.9368 65.6359C83.5318 65.6359 84.1657 65.5665 84.8297 65.4234C85.7396 65.0723 86.1621 66.2688 84.9677 66.5506C84.0924 66.763 83.286 66.8671 82.5832 66.8671C79.4958 66.8671 77.6373 65.315 77.0768 65.4581C76.4472 65.5968 75.8479 66.62 75.4986 67.3266C74.869 68.4191 74.343 69.5463 73.7824 70.6387C73.6444 70.9552 73.5021 71.2717 73.2908 71.5188C73.1141 71.6965 72.7993 71.87 72.5535 71.8353C71.8895 71.8353 71.8161 70.9899 71.8161 70.4957C71.8161 68.909 71.8162 67.3223 71.8506 65.7356C71.8506 65.4191 71.9196 65.0636 72.0619 64.7818C72.1309 64.5694 72.3422 64.4653 72.5535 64.4653C73.0796 64.4653 73.2175 65.4191 73.2563 65.8396C73.2908 66.5072 73.2563 67.1792 73.2563 67.8468L73.5366 67.9552L73.5453 67.9639Z"
			fill="white" />
		<path
			d="M88.2664 68.6705C87.8481 70.2226 86.5114 72.724 84.6572 72.724C83.8509 72.724 83.1826 72.1951 82.9023 71.2413C82.7988 70.9596 82.7255 70.6084 82.7255 70.2919C82.76 68.4928 83.355 66.9061 84.5494 65.5665L84.6529 65.4624C85.0022 65.1807 85.2825 65.0029 85.5628 65.0029C85.7007 65.0029 85.843 65.0723 85.9465 65.1416C86.2613 65.3887 86.2268 65.8136 85.7008 66.4119C84.9634 67.2572 84.4718 68.211 84.2649 69.3035C84.1269 69.9711 84.0191 70.6431 84.6141 71.276C84.8944 71.1373 85.2437 71.0289 85.455 70.8165C86.4036 69.9018 86.9297 68.7356 86.9987 67.3613C87.0332 67.0101 86.9642 66.62 86.9987 66.2341C87.0332 65.5665 87.3479 65.2847 88.0508 65.3887C88.3311 65.4581 88.6458 65.4928 88.8571 65.6705C89.8015 66.3078 91.1382 66.5506 92.5051 66.5506C94.329 66.5506 96.1875 66.1257 97.2741 65.4581C97.5199 65.3194 97.9425 65.1069 98.2918 65.1069C98.4686 65.1069 98.6798 65.1763 98.7833 65.3887C99.0981 65.9176 98.4685 66.3425 98.0805 66.5506C96.5023 67.4653 94.5403 67.8902 92.6474 67.8902C91.246 67.8902 89.8403 67.6778 88.6157 67.2572C88.4777 67.7861 88.3699 68.2457 88.2664 68.6662V68.6705Z"
			fill="white" />
		<path
			d="M104.117 63.1344C103.134 65.4624 102.013 67.7515 100.784 69.9711C100.327 70.8165 99.2059 72.2255 98.1193 72.2255C97.1361 72.2255 96.4376 71.0289 96.4376 70.1098C96.3686 67.9596 96.8947 66.0217 98.4384 64.4697C98.9989 63.9061 99.6285 63.5896 100.331 63.5896C100.926 63.5896 101.521 63.8714 102.047 64.1185C102.185 63.802 102.397 63.5549 102.539 63.2731C103.768 60.5939 104.609 57.7717 105.027 54.8497C105.062 54.4292 105.131 54.0043 105.273 53.6142C105.376 53.4017 105.657 53.1893 105.902 53.12C106.29 53.0506 106.566 53.3324 106.605 53.6835C106.674 54.2124 106.674 54.7413 106.64 55.2702C106.217 59.5361 105.73 63.7674 105.342 68.0332C105.062 71.133 104.919 74.2717 104.712 77.3757C104.678 77.6575 104.712 77.974 104.643 78.2558C104.574 78.75 104.294 79.0318 103.94 78.9971C103.591 78.9624 103.38 78.646 103.345 78.1171C103.345 77.974 103.345 77.8353 103.38 77.6922C103.449 73.2876 103.802 68.8786 104.29 64.474C104.324 64.0535 104.324 63.6286 104.359 63.2038L104.113 63.1344H104.117ZM100.262 65.0376C99.982 65.0376 99.7018 65.2153 99.387 65.6012C98.1581 66.9408 97.6708 68.5275 98.0201 70.3613C98.0201 70.4653 98.1969 70.539 98.2659 70.6431C99.3525 69.9017 100.616 67.8598 101.319 65.7789C100.896 65.2847 100.581 65.0376 100.267 65.0376H100.262Z"
			fill="white" />
		<path
			d="M115.367 69.9364C114.738 70.5694 114.138 71.276 113.405 71.8049C112.983 72.1214 112.53 72.2645 112.142 72.2645C111.404 72.2645 110.809 71.7356 110.564 70.7124C110.176 69.1951 110.283 67.1879 110.421 65.6359C110.456 65.4581 110.564 65.2847 110.702 65.1416C110.878 64.8598 111.405 64.8945 111.542 65.1763C111.685 65.5275 111.788 65.9176 111.788 66.3035C111.823 67.2529 111.823 68.7009 111.857 69.6503C111.857 70.0405 111.857 70.461 112.28 70.6734C113.509 70.6041 115.609 67.3223 116.135 66.3729C116.312 66.0217 116.45 65.6662 116.73 65.3844C116.907 65.172 117.221 65.0332 117.467 65.0332C117.816 65.0679 118.028 65.3844 118.062 65.7399C118.097 66.1257 118.062 66.5159 118.028 66.8671C117.993 67.8555 117.89 68.8049 117.89 69.7587C117.89 70.9942 118.45 71.5578 119.679 71.5231C122.31 71.4191 126.233 67.6474 127.812 65.8483C128.161 65.4971 128.721 64.7905 129.002 65.0723C129.316 65.4234 129.213 65.883 128.967 66.1301C126.828 68.3844 122.9 72.4769 119.675 72.7587C117.713 72.8974 116.553 71.948 116.415 69.9755C116.415 69.6937 116.381 69.4119 116.346 69.1301C116.346 69.0954 116.277 69.0607 116.169 68.987C115.889 69.3035 115.643 69.62 115.363 69.9408L115.367 69.9364Z"
			fill="white" />
		<path
			d="M129.778 65.7789C129.114 66.8367 128.903 68.0333 128.972 69.2341C129.041 70.2226 129.532 70.7124 130.481 70.8555C134.336 71.5231 139.95 68.1416 142.541 65.5318C143.451 64.6864 144.715 65.4278 143.348 66.5202C140.894 69.0954 134.163 72.6546 130.269 72.3035C128.726 72.1648 127.708 71.107 127.536 69.5896C127.359 67.8252 127.712 66.1344 128.799 64.6908C129.502 63.7023 130.446 63.0694 131.675 63.0347C132.727 63 133.499 63.776 133.499 64.8338C133.499 65.185 133.391 65.5015 133.008 65.6098C132.693 65.6792 132.482 65.4711 132.339 65.1893C132.236 64.9769 132.128 64.7992 131.99 64.5174C130.869 64.448 130.235 65.0463 129.782 65.7876L129.778 65.7789Z"
			fill="white" />
		<path
			d="M145.762 59.185C147.832 59.1503 149.898 59.1156 151.933 59.1156C155.158 59.0463 158.349 59.0463 161.54 59.0116C161.82 59.0116 162.45 59.0463 162.45 59.4321C162.45 59.5405 162.342 59.6792 162.239 59.7486C162.135 59.8179 161.958 59.8179 161.82 59.8526C160.208 59.922 158.595 60.0304 156.948 60.0997C153.231 60.2038 149.514 60.3122 145.762 60.4162C145.448 60.4509 145.098 60.4856 144.745 60.5202C144.641 60.7674 144.499 60.9798 144.499 61.1922C144.15 64.1185 144.076 67.0448 144.184 69.9711C144.184 70.5347 144.322 71.133 144.534 71.6619C144.779 72.2601 145.305 72.4726 145.935 72.3295C149.406 71.4148 152.459 68.4538 154.947 65.9827C155.404 65.4538 155.822 65.2413 156.103 65.2413C156.629 65.2413 156.698 66.0174 155.753 67.0058C153.895 69.052 151.825 70.8468 149.475 72.2211C148.492 72.7847 146.633 73.7385 145.478 73.7385C143.162 73.7385 142.71 71.198 142.71 69.3685C142.744 67.3223 142.813 65.2457 142.886 63.1994C142.921 62.3887 142.99 61.578 143.024 60.6633C142.464 60.5549 140.079 60.5549 139.657 60.4162C139.445 60.3815 139.2 60.1344 139.2 59.9567C139.2 59.7789 139.411 59.4971 139.588 59.4624C140.079 59.2847 142.533 59.1807 143.128 59.0766C143.162 58.6864 143.231 58.3353 143.266 57.9494C143.374 57.1387 143.443 56.328 143.512 55.5174C143.581 55.1315 143.65 54.7413 144.141 54.672C144.49 54.6373 144.702 54.9885 144.736 55.6604C144.736 56.2934 144.702 56.9306 144.702 57.5289V59.0809C145.193 59.1503 145.474 59.185 145.754 59.185H145.762Z"
			fill="white" />
		<path
			d="M158.698 70.9596C159.505 70.9249 160.277 70.6431 161.014 70.2919C163.118 69.3035 164.908 67.8945 166.693 66.4162C167.081 66.1344 167.43 65.8179 167.814 65.5708C168.163 65.3237 168.517 65.3931 168.724 65.6402C169.073 66.1344 168.655 66.5939 168.336 66.8757C166.231 68.7442 164.058 70.4697 161.536 71.6705C160.626 72.0954 159.677 72.4119 158.66 72.4465C156.905 72.4465 155.68 71.4971 155.503 69.7674C155.4 68.6749 155.4 67.1575 155.503 66.065C155.607 65.2197 156.029 64.8295 156.486 64.8295C156.909 64.8295 157.081 65.1807 157.012 66.0997C156.978 67.0882 156.801 68.6012 156.978 69.5896C157.155 70.6127 157.681 70.9639 158.694 70.9639L158.698 70.9596ZM156.84 61.2659C156.978 60.8757 157.189 60.4899 157.4 60.1387C157.504 60.0304 157.784 59.961 157.927 60.0304C158.103 60.0997 158.345 60.3468 158.345 60.4899C158.345 60.9148 158.241 61.3353 158.065 61.7255C157.888 62.1156 157.607 62.4668 157.116 62.4321C156.728 62.0809 156.659 61.6908 156.836 61.2702L156.84 61.2659Z"
			fill="white" />
		<path
			d="M171.108 68.6705C170.69 70.2226 169.353 72.724 167.499 72.724C166.693 72.724 166.024 72.1951 165.744 71.2413C165.641 70.9596 165.567 70.6084 165.567 70.2919C165.602 68.4928 166.197 66.9061 167.391 65.5665L167.495 65.4624C167.844 65.1807 168.124 65.0029 168.405 65.0029C168.543 65.0029 168.685 65.0723 168.788 65.1416C169.103 65.3887 169.069 65.8136 168.543 66.4119C167.805 67.2572 167.314 68.211 167.107 69.3035C166.969 69.9711 166.861 70.6431 167.456 71.276C167.736 71.1373 168.086 71.0289 168.297 70.8165C169.246 69.9018 169.772 68.7356 169.841 67.3613C169.875 67.0101 169.806 66.62 169.841 66.2341C169.875 65.5665 170.19 65.2847 170.893 65.3887C171.173 65.4581 171.488 65.4928 171.699 65.6705C172.643 66.3078 173.98 66.5506 175.347 66.5506C177.171 66.5506 179.029 66.1257 180.116 65.4581C180.362 65.3194 180.784 65.1069 181.134 65.1069C181.31 65.1069 181.522 65.1763 181.625 65.3887C181.94 65.9176 181.31 66.3425 180.922 66.5506C179.344 67.4653 177.382 67.8902 175.489 67.8902C174.088 67.8902 172.682 67.6778 171.458 67.2572C171.32 67.7861 171.212 68.2457 171.108 68.6662V68.6705Z"
			fill="white" />
		<path
			d="M183.307 67.8208C184.148 66.763 185.903 65.0723 187.339 65.0723C188.214 65.0723 188.882 65.7096 189.232 66.9755C189.443 67.6431 189.546 68.3844 189.758 69.0564C190.003 69.8324 190.353 70.1835 190.948 70.1835C191.159 70.1835 191.37 70.1489 191.612 70.0795C192.241 69.9017 192.841 69.5853 193.436 69.3035C195.083 68.4234 196.523 67.2226 197.994 66.0607C198.343 65.8136 198.696 65.5318 199.08 65.3541C199.222 65.25 199.572 65.3194 199.71 65.4581C199.817 65.5968 199.817 65.9176 199.71 66.0911C199.572 66.4075 199.326 66.6546 199.08 66.8671C197.153 68.6662 194.242 70.9552 191.612 71.5535C190.21 71.87 189.016 71.237 188.524 69.8974C188.244 69.1908 188.106 68.4148 187.929 67.6778C187.753 66.9017 187.511 66.5506 187.123 66.5506C186.386 66.5506 184.738 68.276 184.281 68.8049C183.686 69.4379 183.195 70.1445 182.6 70.7775C182.319 71.0939 181.69 71.6922 181.233 71.6922C180.918 71.6922 180.638 71.4451 180.564 71.0246C180.564 70.8859 180.53 70.7428 180.53 70.565C180.53 69.0867 180.53 67.6041 180.564 66.1214C180.564 65.5578 180.707 64.7818 181.336 64.6041C181.651 64.5347 181.828 64.8512 181.897 65.1676C181.966 65.5882 181.931 66.013 181.966 66.4379C182 67.2486 181.931 68.0593 182.104 68.9393C182.699 68.6575 182.979 68.198 183.294 67.8122L183.307 67.8208Z"
			fill="white" />
		<path
			d="M199.296 68.8786C199.119 68.3844 198.912 67.8902 198.77 67.396C198.42 66.1257 198.981 64.8252 200.033 64.2963C200.313 64.1575 200.628 64.0838 200.908 64.0838C201.749 64.0838 202.452 64.7515 202.418 65.7746C202.418 65.9523 202.349 66.1604 202.28 66.3382C202.172 66.5853 201.93 66.6893 201.719 66.6893C201.542 66.6893 201.37 66.62 201.228 66.4422C201.051 66.2298 200.947 65.948 200.839 65.7009C200.382 65.7356 200.21 66.0174 200.175 66.3685C200.141 66.6503 200.175 66.9321 200.244 67.2139C200.559 68.1676 200.908 69.1171 201.228 70.0708C201.197 71.5275 200.632 71.87 200.141 72.1517C199.861 72.3295 199.58 72.3989 199.266 72.3989C198.705 72.3989 198.213 72.0824 197.899 71.5535C197.653 71.0939 197.722 70.461 198.459 70.4263C198.774 70.4263 199.123 70.357 199.404 70.3223C199.684 69.7934 199.473 69.3338 199.3 68.8786H199.296Z"
			fill="white" />
		<path
			d="M21.3486 38.4971H21.2926C21.0727 38.8873 20.9606 39.6069 20.8528 40.3266C20.7967 41.0463 20.7967 41.8786 20.745 42.711C20.6329 44.3194 20.413 45.5419 19.6411 45.5419C19.3651 45.5419 19.0892 45.3208 18.9771 44.8743C18.8132 44.2067 18.7571 40.2139 18.7011 35.9437C18.7011 31.7298 18.7571 27.3468 18.7571 25.9595C18.7571 24.5723 18.7011 21.0217 18.8132 17.5838C18.8693 14.0332 18.9771 10.8165 19.3091 10.0405C19.4729 9.54191 19.861 9.37284 20.193 9.37284C20.5251 9.37284 21.1331 9.65029 21.2969 10.1488C21.409 10.591 21.4608 12.5896 21.4608 14.8093V22.4653H21.5729C21.7928 22.578 21.961 22.6301 22.1809 22.6301C26.3721 22.5173 36.031 17.9697 39.6703 14.6402C40.8302 13.5867 41.9341 12.1994 41.9341 10.5347C41.9341 9.31214 41.3821 8.42775 40.7742 7.76012C37.0227 3.71098 27.532 2.21098 18.5933 2.21098C12.3582 2.21098 6.39899 2.93064 2.70362 3.9841C2.37159 4.09682 1.54369 4.37428 0.883957 4.37428C0.388079 4.37428 0 4.20954 0 3.65463C0 3.09971 0.827902 2.5448 1.26772 2.3237C6.01091 0.277457 12.466 0 17.3773 0C23.9445 0 36.8546 0.333815 42.7577 6.21243C43.5856 7.10116 44.6894 8.48844 44.6894 10.539C44.6894 13.7558 42.1497 16.4176 39.114 18.4162C36.1345 20.3584 32.8228 21.633 31.5551 22.2442L30.8954 22.5217L31.5551 22.6908C32.5469 22.9119 35.2505 23.3541 37.6781 24.4119C40.1618 25.4653 42.2575 27.1301 42.2575 29.6272C42.2575 30.737 41.7616 31.5694 41.3175 32.1806C36.7942 38.3931 28.9593 38.3931 22.0601 38.3931C21.8402 38.3931 21.6203 38.4494 21.3443 38.4494V38.5058L21.3486 38.4971ZM21.5125 36.2211H21.6203C25.7038 36.1647 35.6343 36.4422 39.1097 31.1185C39.8816 30.1214 39.8255 29.0116 38.8898 28.0665C36.2983 25.461 29.1232 24.3512 26.0875 24.6806C24.6516 24.8497 22.7759 24.8497 21.616 25.4567L21.5599 25.513V25.6257C21.284 27.4552 21.284 29.5101 21.284 31.2832C21.284 32.6705 21.284 34.6691 21.5039 36.052V36.2168L21.5125 36.2211Z"
			fill="white" />
		<path
			d="M50.9806 29.8439C51.3687 29.1806 51.6447 28.513 52.0284 27.9017C52.7442 26.8483 53.4083 25.7384 54.2362 24.7413C54.8442 24.0217 55.616 23.5752 56.4957 23.5752C56.8837 23.5752 57.3236 23.6879 57.7116 23.8526C60.3031 25.0708 62.7351 26.1806 65.7664 26.1806C66.7064 26.1806 67.6982 26.0679 68.746 25.8468C70.1819 25.2919 70.8416 27.1778 68.9659 27.6243C67.5861 27.9581 66.3184 28.1228 65.2145 28.1228C60.3592 28.1228 57.4357 25.6821 56.5517 25.9032C55.56 26.1243 54.6199 27.7327 54.068 28.8425C53.0763 30.5636 52.2483 32.3367 51.3644 34.0578C51.1445 34.5564 50.9246 35.0549 50.5925 35.4451C50.3166 35.7226 49.8207 36 49.4326 35.9437C48.3848 35.9437 48.2727 34.6127 48.2727 33.8367C48.2727 31.3396 48.2727 28.8425 48.3288 26.3497C48.3288 25.8512 48.4409 25.2963 48.6608 24.8541C48.7729 24.5202 49.1006 24.3555 49.4326 24.3555C50.2605 24.3555 50.4804 25.8512 50.5365 26.5188C50.5925 27.5723 50.5365 28.6257 50.5365 29.6792L50.9763 29.8439H50.9806Z"
			fill="white" />
		<path
			d="M73.7738 34.5607C75.0415 34.5043 76.2575 34.0621 77.4131 33.5072C80.7247 31.9552 82.5616 28.7515 85.3773 26.4191C85.9853 25.9769 86.5373 25.474 87.141 25.0882C87.6929 24.698 88.2448 24.8107 88.5768 25.2009C89.1288 25.9769 88.4647 26.6965 87.9689 27.1431C84.6573 30.0824 82.2124 33.7847 78.241 35.6705C76.8051 36.3338 75.3175 36.8367 73.7177 36.8931C70.9581 36.8931 69.0263 35.3931 68.7503 32.6749C68.5865 30.9538 68.5865 28.5694 68.7503 26.8483C68.9142 25.5173 69.5782 24.9061 70.294 24.9061C70.9538 24.9061 71.234 25.461 71.1219 26.9046C71.0659 28.4567 70.7899 30.8454 71.0659 32.3974C71.3418 34.0058 72.1697 34.5607 73.7695 34.5607H73.7738ZM70.8503 19.3049C71.0702 18.6936 71.4022 18.0824 71.7342 17.5318C71.9024 17.3671 72.3422 17.2543 72.5621 17.3671C72.8381 17.4798 73.2219 17.8656 73.2219 18.0867C73.2219 18.75 73.058 19.4176 72.782 20.0289C72.5061 20.6402 72.0663 21.1951 71.2944 21.1387C70.6864 20.5838 70.5786 19.9725 70.8546 19.3093L70.8503 19.3049Z"
			fill="white" />
		<path
			d="M95.3424 23.4104C95.6744 23.0202 96.1142 22.8555 96.5583 23.133C96.8343 23.2977 97.1103 23.6879 97.1103 24.0217C97.1663 25.1315 97.1663 26.2977 97.1663 27.4075C97.1103 29.7919 97.0585 32.1243 97.0025 34.4523V36.6156C98.9342 35.5621 108.869 29.1199 111.849 26.0116C113.448 24.2905 114.664 23.6272 115.16 23.9567C116.264 24.7327 114.664 26.2327 114.112 26.896C111.629 29.8353 100.758 36.8887 97.0585 39.4942C96.9464 41.4928 96.7826 43.5997 96.6704 45.6503C96.5583 50.8093 95.2346 59.185 89.4436 60.8497C86.5761 61.461 84.4201 59.961 83.9803 56.909C83.5405 54.2471 83.7604 51.6373 84.9203 49.1402C85.7482 47.3671 86.7399 45.646 88.1198 44.2023C89.7756 42.5939 91.4874 40.9856 93.251 39.4335C94.135 38.6575 94.7387 37.8815 94.6869 36.6026C94.6309 34.1055 94.6869 31.6084 94.6869 28.8902C94.2471 29.224 93.859 29.4451 93.6391 29.7789C92.1515 31.7211 88.2879 36.3815 85.5843 36.3815C84.1484 36.3815 82.9368 35.2717 82.9368 33.6633C82.9368 30.3338 84.1484 27.3945 86.7442 25.2312C87.736 24.3989 88.8399 23.9567 89.9998 23.9567C91.2675 23.9567 92.3153 24.4552 93.3632 25.1792C93.5313 25.2356 93.6391 25.2356 93.9151 25.3439C94.411 24.7327 94.8551 24.0694 95.351 23.4017L95.3424 23.4104ZM86.0716 34.0058C87.8395 33.5636 90.8148 29.9003 91.8108 28.4046C92.4188 27.6286 91.8669 26.6315 90.8191 26.4061C89.4392 26.1286 88.3354 26.5708 87.4514 27.6806C86.2354 29.1806 85.4636 30.841 85.2437 32.7832C85.1876 33.1171 85.2997 33.5029 85.3515 33.8931C85.7913 33.9494 85.9595 34.0058 86.0673 34.0058H86.0716ZM86.4036 51.646C85.9077 53.3671 85.9077 55.0838 86.2397 56.8049C86.4597 58.0231 87.2876 58.7471 88.3354 58.7471C88.7191 58.7471 89.1072 58.6344 89.4953 58.4697C89.8273 58.3049 90.1033 58.0275 90.4353 57.802C91.979 56.5275 92.919 54.8064 93.4149 52.8642C94.2428 49.4263 94.3549 45.9278 94.5748 42.4899C94.6309 42.2688 94.5188 42.0477 94.411 41.6575C90.9916 43.6561 87.3479 48.2038 86.4122 51.6416L86.4036 51.646Z"
			fill="white" />
		<path
			d="M132.71 36.8367C130.89 36.8367 129.235 36.0607 127.967 34.4523C127.139 33.3989 126.531 32.1243 125.815 30.9581C125.207 29.9046 124.655 28.8512 123.607 28.2962C121.292 28.409 117.816 32.9567 116.713 34.6778C116.437 35.1763 116.105 35.7312 115.665 36.1214C115.333 36.5636 114.781 36.841 114.229 36.5116C113.897 36.2905 113.621 35.8483 113.513 35.4581C113.401 34.9595 113.457 34.4046 113.457 33.8497C113.845 26.0809 114.229 18.3165 114.617 10.552C114.729 8.50145 114.729 6.44653 114.837 4.39596C114.893 3.61994 115.057 2.78757 115.277 2.01156C115.389 1.7341 115.885 1.45665 116.161 1.45665C116.437 1.51301 116.876 1.84682 116.932 2.12428C117.096 2.79191 117.096 3.4552 117.096 4.12283C116.984 7.39596 116.82 10.6691 116.657 13.8858C116.437 19.487 116.161 25.0361 115.941 30.6373C115.885 30.8584 115.997 31.0275 116.109 31.4697C116.493 31.0275 116.825 30.75 117.101 30.4162C117.985 29.5838 118.756 28.6951 119.64 27.8627C120.632 26.9176 122.068 25.9205 123.504 25.9205C124.444 25.9205 125.216 26.4191 126.095 27.3642C126.867 28.1965 127.419 29.1936 128.027 30.1387C128.579 31.0275 129.019 32.0246 129.683 32.8569C130.567 33.9668 131.503 34.5217 132.663 34.5217C133.215 34.5217 133.823 34.409 134.482 34.1315C138.014 32.8569 141.381 29.4147 144.029 26.8656C145.353 25.0925 147.78 25.8685 145.521 28.3093C142.817 31.2486 137.022 36.8541 132.719 36.8541L132.71 36.8367Z"
			fill="white" />
		<path
			d="M149.488 16.0318C152.744 15.9754 155.999 15.9191 159.199 15.9191C164.274 15.8064 169.293 15.8064 174.316 15.7543C174.756 15.7543 175.752 15.8107 175.752 16.4176C175.752 16.5824 175.588 16.8078 175.42 16.9162C175.256 17.0289 174.98 17.0289 174.761 17.0809C172.221 17.1936 169.685 17.3584 167.09 17.4711C161.242 17.6358 155.391 17.8049 149.488 17.9697C148.992 18.026 148.44 18.0824 147.888 18.1387C147.724 18.5289 147.5 18.8584 147.5 19.1922C146.948 23.7962 146.84 28.4003 147.004 33.0043C147.004 33.8931 147.224 34.8338 147.556 35.6662C147.94 36.6113 148.772 36.9408 149.764 36.7197C155.227 35.276 163.256 30.2775 167.176 26.3931C167.892 25.5607 168.556 25.2269 168.995 25.2269C169.823 25.2269 169.935 26.4494 168.443 28.0015C165.52 31.2182 159.035 34.3873 155.335 36.5506C153.791 37.4393 150.868 38.935 149.048 38.935C145.405 38.935 144.689 34.9422 144.689 32.0549C144.745 28.8382 144.853 25.565 144.965 22.3483C145.021 21.0737 145.129 19.7948 145.185 18.3555C144.301 18.1908 140.549 18.1908 139.889 17.9653C139.557 17.909 139.174 17.5231 139.174 17.2457C139.174 16.9682 139.506 16.526 139.782 16.4697C140.554 16.1922 144.417 16.0275 145.353 15.8584C145.409 15.2471 145.521 14.6922 145.573 14.0853C145.737 12.8107 145.849 11.5318 145.956 10.2572C146.069 9.64596 146.176 9.03468 146.948 8.9263C147.5 8.86994 147.832 9.42486 147.888 10.4783C147.888 11.4754 147.832 12.4769 147.832 13.4176V15.8584C148.604 15.9711 149.048 16.0231 149.488 16.0231V16.0318Z"
			fill="white" />
		<path
			d="M168.31 31.2876C168.034 30.5116 167.702 29.7356 167.482 28.9595C166.93 26.961 167.814 24.9104 169.47 24.078C169.91 23.8569 170.41 23.7442 170.85 23.7442C172.173 23.7442 173.277 24.7977 173.221 26.4061C173.221 26.6835 173.113 27.0173 173.001 27.2948C172.837 27.685 172.449 27.8497 172.117 27.8497C171.841 27.8497 171.565 27.737 171.345 27.4595C171.069 27.1257 170.906 26.6835 170.737 26.2934C170.022 26.3497 169.746 26.7919 169.69 27.3468C169.634 27.789 169.69 28.2356 169.802 28.6778C170.298 30.1778 170.85 31.6734 171.345 33.1691C172.229 33.5029 173.001 33.0564 173.773 32.7789C177.417 31.448 180.616 29.341 183.376 26.6228C183.76 26.2327 184.644 25.513 185.308 25.513C185.528 25.513 185.747 25.5694 185.86 25.7905C186.243 26.289 185.916 26.8439 185.472 27.2861C181.72 31.1142 177.417 34.1662 172.066 35.276C171.126 35.4408 170.41 35.9957 169.638 36.4422C169.198 36.7197 168.754 36.8324 168.258 36.8324C167.374 36.8324 166.602 36.3338 166.106 35.5015C165.723 34.7818 165.83 33.7804 166.99 33.7283C167.486 33.7283 168.038 33.6156 168.482 33.5593C168.922 32.7269 168.59 32.0072 168.314 31.2832L168.31 31.2876Z"
			fill="white" />
		<path
			d="M189.167 34.5607C190.435 34.5043 191.651 34.0621 192.806 33.5072C196.118 31.9552 198.929 29.7356 201.745 27.4032C202.353 26.961 202.905 26.4581 203.509 26.0723C204.06 25.6821 204.612 25.7948 204.944 26.185C205.496 26.961 204.832 27.6806 204.336 28.1272C201.025 31.0665 197.605 33.7847 193.63 35.6705C192.194 36.3338 190.706 36.8367 189.107 36.8931C186.347 36.8931 184.415 35.3931 184.139 32.6749C183.975 30.9538 183.975 28.5694 184.139 26.8483C184.303 25.5173 184.967 24.9061 185.683 24.9061C186.343 24.9061 186.623 25.461 186.511 26.9046C186.455 28.4567 186.179 30.8454 186.455 32.3974C186.731 34.0058 187.559 34.5607 189.158 34.5607H189.167ZM186.243 19.3049C186.463 18.6936 186.795 18.0824 187.127 17.5318C187.295 17.3671 187.735 17.2543 187.955 17.3671C188.231 17.4798 188.615 17.8656 188.615 18.0867C188.615 18.75 188.451 19.4176 188.175 20.0289C187.899 20.6402 187.459 21.1951 186.687 21.1387C186.079 20.5838 185.972 19.9725 186.248 19.3093L186.243 19.3049Z"
			fill="white" />
		<path
			d="M213.34 22.2442C211.796 25.9032 210.028 29.5101 208.097 33.0043C207.381 34.3353 205.613 36.5549 203.905 36.5549C202.362 36.5549 201.258 34.6691 201.258 33.2254C201.146 29.8396 201.973 26.7919 204.401 24.3512C205.285 23.4624 206.277 22.9639 207.381 22.9639C208.321 22.9639 209.256 23.4061 210.084 23.7962C210.304 23.2977 210.636 22.9075 210.856 22.4653C212.788 18.2471 214.112 13.8121 214.776 9.20809C214.832 8.54046 214.94 7.87717 215.16 7.2659C215.323 6.93208 215.768 6.59827 216.151 6.48989C216.759 6.37717 217.199 6.8237 217.255 7.37861C217.367 8.21099 217.367 9.04335 217.311 9.87573C216.652 16.5867 215.875 23.2457 215.272 29.9567C214.832 34.8382 214.612 39.776 214.28 44.6575C214.224 45.0997 214.28 45.6026 214.168 46.0448C214.056 46.8208 213.616 47.2674 213.064 47.211C212.512 47.1546 212.18 46.6561 212.124 45.8237C212.124 45.6026 212.124 45.3815 212.18 45.1604C212.292 38.224 212.84 31.2919 213.616 24.3555C213.672 23.6879 213.672 23.0246 213.728 22.3569L213.34 22.2442ZM207.273 25.2399C206.833 25.2399 206.389 25.5173 205.893 26.1286C203.961 28.2356 203.189 30.7327 203.741 33.6156C203.741 33.7804 204.017 33.8931 204.125 34.0578C205.837 32.8916 207.825 29.6749 208.924 26.4017C208.26 25.6257 207.764 25.2356 207.269 25.2356L207.273 25.2399Z"
			fill="white" />
		<path
			d="M226.53 33.3945C227.746 33.8367 229.066 34.0058 230.338 34.0058C237.621 34.0058 245.4 27.9581 247.275 26.4061C247.771 26.0159 248.435 25.2962 249.043 25.2962C249.319 25.2962 249.539 25.3526 249.759 25.6301C250.475 26.4624 249.427 27.5723 248.819 28.0708C245.839 30.6243 237.841 36.1127 230.17 36.1127C229.178 36.1127 228.182 36 227.246 35.8353C223.383 35.0593 221.175 32.6185 222.003 28.7905C222.499 26.237 225.094 22.578 227.962 22.578C228.458 22.578 228.902 22.6908 229.398 22.9119C231.054 23.6315 231.769 25.2962 231.11 27.0173C230.282 29.5708 226.694 30.789 224.379 31.2876C224.711 32.6749 225.538 33.1171 226.53 33.3945ZM228.846 26.4581C229.01 26.1806 229.01 25.7384 228.902 25.461C228.738 24.9624 228.242 24.8497 227.742 24.9624C226.362 25.1835 224.926 26.9046 224.762 28.7905C226.034 28.513 228.294 27.7934 228.846 26.4581Z"
			fill="white" />
	</symbol>

	<symbol viewBox="0 0 24 19" id="mail" xmlns="http://www.w3.org/2000/svg">
		<path
			d="M3.9 0H20.1C22.1796 0 23.8791 1.61079 23.9938 3.64037L24 3.85938V15.1406C24 17.1986 22.3723 18.8804 20.3213 18.9939L20.1 19H3.9C1.82036 19 0.120905 17.3892 0.0061738 15.3596L0 15.1406V3.85938C0 1.8014 1.62775 0.119645 3.67869 0.00610921L3.9 0H20.1H3.9ZM22.2 6.38044L12.4192 11.4756C12.1943 11.5928 11.9318 11.6095 11.6961 11.5258L11.5808 11.4756L1.8 6.38162V15.1406C1.8 16.231 2.64853 17.1252 3.72777 17.2119L3.9 17.2188H20.1C21.2018 17.2188 22.1054 16.3791 22.193 15.3111L22.2 15.1406V6.38044ZM20.1 1.78125H3.9C2.79819 1.78125 1.89457 2.62094 1.80696 3.68894L1.8 3.85938V4.36881L12 9.68105L22.2 4.36762V3.85938C22.2 2.76904 21.3515 1.87483 20.2722 1.78814L20.1 1.78125Z"
			fill="white" />
	</symbol>

	<symbol viewBox="0 0 27 60" id="icon-open" xmlns="http://www.w3.org/2000/svg">
		<path
			d="M26.6446 0L26.9939 0.564137C27.0205 0.841728 26.963 1.04321 26.764 1.24021C26.2642 1.72823 23.518 2.03716 22.4831 2.72666C21.1299 3.6266 20.8867 5.28767 20.7805 6.82337C20.3914 12.4424 21.298 18.7553 20.7982 24.3027C20.5594 26.9487 18.8789 28.3412 16.5395 29.1695L13.0503 30.1097C16.4378 30.6291 20.4489 31.5782 20.7982 35.7018C21.267 41.2089 20.4268 47.383 20.7805 52.9572C20.9265 55.2765 21.1476 56.942 23.4472 57.8688C24.2344 58.1867 26.9895 58.4956 26.9895 59.4403L26.649 60H0L0.216694 58.7643C3.13101 57.7211 5.49254 57.5241 5.75788 53.8527L5.74461 5.93687C5.39525 2.38639 2.72416 2.44012 0.0309563 1.31184L0 0H26.6446Z"
			fill="white" />
	</symbol>

	<symbol viewBox="0 0 24 60" id="icon-closed" xmlns="http://www.w3.org/2000/svg">
		<path
			d="M0.0220552 0H9.38437C10.5783 0 13.6712 1.05846 14.8255 1.63011C25.8929 7.05638 27.7081 23.5004 15.667 28.9267C13.0147 30.1236 11.3802 29.9048 8.82924 28.4801C6.98762 27.4529 6.14611 26.1801 5.96107 24.0185C5.47643 18.3153 6.78495 10.7677 5.86855 5.35481C5.70994 4.4214 5.19887 3.35402 4.43226 2.79129C2.92107 1.66584 -0.290756 2.25536 0.0220552 0Z"
			fill="white" />
		<path
			d="M0 60L0.0308406 58.9147C2.74922 57.7938 5.27814 58.2448 5.8509 54.6497C6.74527 49.0358 5.41913 41.5909 5.93901 35.7582C6.17693 33.1009 8.16394 31.5556 10.5254 30.8053C13.5875 29.8362 15.0017 30.5597 17.6056 32.2121C28.3028 39.005 24.602 54.7792 13.7152 59.0487C13.257 59.2274 10.9704 59.9955 10.6841 59.9955H0V60Z"
			fill="white" />
	</symbol>
</svg>